<?xml version="1.0" standalone="no"?>
<!DOCTYPE svg PUBLIC "-//W3C//DTD SVG 20010904//EN"
 "http://www.w3.org/TR/2001/REC-SVG-20010904/DTD/svg10.dtd">
<svg version="1.0" xmlns="http://www.w3.org/2000/svg"
 width="853.000000pt" height="1280.000000pt" viewBox="0 0 853.000000 1280.000000"
 preserveAspectRatio="xMidYMid meet">

<g transform="translate(0.000000,1280.000000) scale(0.100000,-0.100000)"
fill="#000000" stroke="none">
<path d="M1 11588 c1 -667 4 -1199 6 -1183 2 17 7 37 10 45 3 8 16 42 27 75
21 60 73 157 88 163 5 2 15 10 22 18 8 7 35 18 61 24 41 9 50 8 66 -6 11 -9
19 -27 19 -40 0 -13 4 -25 10 -29 5 -3 6 -13 3 -22 -4 -11 -3 -14 5 -9 7 4 12
3 12 -3 0 -5 15 -13 33 -16 17 -4 37 -10 42 -13 6 -4 25 -7 44 -9 19 -1 38 -7
42 -15 6 -9 9 -9 9 -1 0 17 113 -23 136 -48 11 -11 29 -31 42 -43 12 -13 22
-29 22 -35 0 -7 4 -9 10 -6 5 3 10 -1 10 -10 0 -9 7 -27 16 -41 20 -30 28
-170 13 -224 -11 -39 -54 -94 -68 -86 -5 4 -11 1 -13 -5 -2 -5 -19 -11 -38
-11 -19 0 -41 -5 -47 -11 -7 -5 -13 -7 -13 -3 0 3 -10 2 -23 -3 -13 -5 -41
-12 -61 -15 -21 -4 -42 -8 -46 -11 -20 -12 -77 -12 -96 0 -11 7 -49 16 -84 19
-64 7 -92 19 -88 40 6 31 -15 88 -35 96 -18 7 -19 9 -4 9 10 1 16 5 13 10 -3
4 -17 6 -31 4 -13 -3 -23 -9 -20 -13 7 -11 -34 -60 -51 -60 -15 0 -27 36 -28
87 -1 18 -4 33 -8 33 -5 0 -8 -2304 -8 -5120 l0 -5120 4265 0 4265 0 0 6400 0
6400 -117 0 -118 -1 -25 -51 c-17 -35 -24 -66 -23 -97 1 -25 -3 -51 -8 -57 -5
-7 -9 -16 -7 -20 1 -5 -1 -31 -6 -57 -4 -27 -3 -53 2 -60 13 -17 34 -100 37
-144 1 -21 -4 -48 -12 -60 -7 -13 -12 -42 -12 -67 2 -48 -29 -105 -59 -108
-48 -4 -88 -3 -92 3 -3 4 -41 9 -86 11 -44 3 -86 8 -92 12 -7 4 -22 4 -33 1
-12 -4 -63 -8 -114 -10 -51 -2 -98 -6 -104 -9 -6 -4 -17 -4 -23 0 -12 7 -37
13 -63 15 -36 2 -129 -12 -140 -21 -9 -8 -15 -8 -20 0 -3 5 -18 10 -33 10 -21
0 -24 -2 -12 -10 13 -8 13 -10 -1 -10 -9 0 -22 7 -29 15 -7 8 -18 15 -26 15
-7 0 -19 6 -26 13 -7 7 -29 20 -48 30 -19 9 -31 17 -27 17 5 0 0 12 -10 28
-10 15 -25 41 -33 57 -8 17 -21 34 -27 38 -7 4 -13 13 -13 18 0 6 -7 26 -16
44 -12 27 -13 42 -5 86 20 97 21 110 9 103 -6 -4 -8 -3 -5 3 9 14 -12 83 -25
83 -6 0 -8 9 -5 20 3 11 0 20 -6 20 -7 0 -5 5 3 10 8 5 10 10 3 10 -6 0 -10
11 -8 26 1 14 -3 28 -10 30 -7 3 -15 18 -19 35 l-5 29 -3521 0 -3520 0 1
-1212z m2592 1153 c15 -6 27 -20 30 -38 22 -111 28 -127 58 -154 18 -16 36
-26 40 -23 5 3 9 1 9 -5 0 -6 7 -8 15 -5 8 4 22 1 30 -6 12 -10 15 -10 15 0 0
7 6 10 13 8 17 -7 165 10 207 23 36 12 73 27 146 60 22 11 50 19 62 19 12 0
22 4 22 9 0 5 28 8 63 7 l62 -1 -3 -54 c-2 -35 -11 -66 -24 -85 -35 -50 -82
-95 -100 -96 -10 0 -18 -5 -18 -11 0 -5 -4 -7 -10 -4 -5 3 -10 -1 -10 -9 0 -9
-6 -16 -13 -16 -12 0 -59 -33 -154 -108 -12 -9 -22 -23 -23 -30 0 -7 -3 -11
-8 -8 -4 2 -16 -2 -27 -10 -13 -10 -15 -14 -4 -14 12 0 12 -2 -1 -9 -8 -6 -18
-7 -22 -5 -5 3 -10 -1 -13 -8 -4 -10 -23 -12 -71 -10 -58 3 -71 7 -95 32 -16
16 -29 33 -29 38 0 5 -7 12 -15 16 -8 3 -15 15 -15 26 0 11 -4 20 -8 20 -5 0
-7 14 -4 30 3 18 0 30 -7 30 -6 0 -10 3 -10 8 10 59 -31 78 -105 50 -28 -11
-64 -21 -82 -24 -18 -2 -52 -10 -76 -18 -23 -7 -65 -19 -93 -26 -27 -7 -55
-17 -62 -22 -7 -6 -16 -7 -22 -4 -5 3 -11 -1 -15 -9 -11 -29 -65 10 -66 48 0
9 -4 17 -8 17 -8 0 -38 45 -43 65 -1 6 -9 16 -16 23 -7 7 -13 25 -13 38 0 14
-5 46 -11 71 -9 35 -9 47 0 53 7 4 12 10 12 14 -3 18 1 25 24 50 30 32 66 27
106 -15 36 -39 69 -50 111 -38 29 7 107 57 156 99 6 6 12 7 12 3 0 -4 4 -3 10
3 13 13 63 16 93 5z m-1208 -775 c104 -8 122 -16 159 -63 32 -41 41 -61 37
-85 -10 -71 -13 -95 -14 -106 -1 -22 -63 -81 -93 -88 -16 -4 -31 -11 -34 -15
-3 -5 -34 -11 -69 -15 -35 -3 -79 -15 -98 -25 -61 -34 -233 -37 -233 -3 0 13
-47 20 -103 16 -10 -1 -15 3 -12 8 3 6 -2 13 -12 16 -10 3 -27 9 -38 14 -11 5
-29 11 -40 15 -16 5 -17 8 -5 15 13 8 12 10 -2 10 -26 0 -23 55 4 82 15 15 18
23 9 26 -8 3 -7 8 6 18 10 7 13 14 6 14 -16 0 -12 40 4 40 7 0 13 6 13 14 0
22 41 43 95 50 74 8 75 9 75 18 0 4 6 8 13 8 7 0 19 6 25 13 30 30 131 37 307
23z m5815 -487 c0 -3 23 -7 52 -8 29 -1 55 -5 58 -9 3 -5 25 -9 50 -10 53 -2
82 -6 95 -14 21 -12 68 -18 177 -24 132 -7 137 -8 161 -18 10 -5 23 -4 31 3 7
6 16 8 20 4 3 -4 55 -8 114 -10 122 -3 164 -7 178 -16 11 -6 85 0 92 8 9 8
102 -46 102 -59 0 -8 4 -16 8 -18 35 -15 78 -146 66 -203 -4 -16 -6 -37 -6
-45 0 -17 -37 -119 -50 -136 -5 -7 -8 -16 -7 -20 1 -5 -1 -16 -4 -24 -11 -27
-49 -164 -58 -210 -6 -25 -12 -94 -14 -155 -5 -134 -11 -186 -23 -194 -5 -3
-15 -36 -22 -73 -8 -38 -17 -68 -22 -68 -4 0 -8 -11 -8 -24 0 -26 -44 -115
-66 -132 -7 -6 -11 -14 -7 -17 3 -4 -1 -7 -9 -7 -12 0 -14 -6 -10 -22 3 -14 2
-19 -6 -14 -7 4 -12 1 -12 -6 0 -7 -14 -29 -30 -48 -29 -33 -35 -67 -16 -81 5
-4 -1 -12 -13 -18 -11 -7 -21 -21 -21 -31 0 -11 -4 -20 -8 -20 -15 0 -42 -58
-35 -76 5 -14 3 -16 -11 -11 -14 6 -16 3 -11 -13 6 -18 2 -19 -67 -16 -41 2
-74 8 -76 15 -2 7 -9 6 -19 -4 -19 -20 -43 -19 -43 1 0 12 -7 15 -25 12 -13
-3 -26 -1 -28 5 -1 5 -20 10 -40 11 -35 1 -37 3 -32 26 4 19 3 21 -5 10 -9
-13 -14 -7 -11 13 2 11 -17 8 -24 -4 -4 -5 1 -19 11 -30 10 -11 12 -19 6 -19
-7 0 -12 5 -12 11 0 6 -7 9 -15 5 -10 -4 -14 1 -12 17 1 13 -3 21 -10 19 -7
-1 -13 8 -13 19 0 17 -3 19 -14 10 -11 -9 -23 -7 -56 10 -23 12 -65 24 -93 26
-29 3 -55 10 -59 16 -6 9 -11 8 -18 -3 -6 -9 -10 -10 -10 -3 0 6 -9 15 -20 18
-11 4 -17 11 -14 17 5 8 1 9 -10 5 -10 -4 -15 -3 -11 3 3 5 -3 20 -15 32 -13
14 -16 24 -10 26 7 3 -2 13 -19 23 -18 11 -31 27 -31 39 0 11 -4 20 -10 20 -5
0 -7 7 -4 15 4 9 0 15 -10 15 -19 0 -21 16 -3 24 10 5 10 7 0 12 -7 3 -13 15
-13 26 0 11 -9 33 -21 49 -14 20 -21 49 -24 96 -3 38 -5 70 -6 73 -4 16 -4 77
1 85 3 6 6 24 6 40 3 65 4 67 19 61 17 -6 21 19 5 29 -6 4 -7 11 -4 17 4 6 0
14 -7 19 -11 7 -11 9 -1 9 7 0 10 4 7 10 -14 23 -22 243 -10 305 16 91 21 165
11 165 -6 0 -5 4 2 9 12 7 11 14 -2 40 -12 22 -13 31 -4 31 9 0 9 3 0 12 -7 7
-12 22 -12 34 0 13 -7 29 -15 38 -8 8 -15 19 -15 24 0 6 -5 12 -11 14 -10 3
-15 59 -7 89 2 9 11 24 21 33 19 19 23 31 7 21 -5 -3 -10 -2 -10 3 0 6 7 13
16 16 9 4 14 9 11 13 -13 12 34 62 61 65 43 5 82 4 82 -3z m-4704 -106 c4 -16
10 -30 13 -33 4 -3 17 -43 30 -90 13 -47 38 -107 55 -135 41 -64 59 -105 46
-105 -6 0 -10 -9 -10 -20 0 -10 -8 -24 -17 -29 -14 -8 -15 -10 -3 -11 13 0 13
-1 0 -10 -12 -8 -13 -10 -1 -10 10 0 8 -7 -7 -23 -12 -13 -22 -28 -22 -34 0
-5 -11 -15 -24 -21 -19 -8 -33 -6 -72 13 -32 15 -42 24 -29 25 16 1 13 4 -11
14 -36 16 -51 51 -53 119 -1 27 -6 58 -10 70 -13 35 -5 178 11 188 11 8 11 10
-1 18 -11 7 -11 9 0 14 12 4 11 7 -1 16 -12 8 -12 11 -1 11 8 0 11 6 7 16 -3
8 -2 12 4 9 6 -3 10 -1 10 4 0 6 9 11 19 11 11 0 23 5 26 10 12 19 35 10 41
-17z m4559 -673 c3 -5 1 -10 -4 -10 -6 0 -11 5 -11 10 0 6 2 10 4 10 3 0 8 -4
11 -10z m-3158 -967 c1 -28 -55 -82 -79 -75 -17 4 -15 9 23 48 48 49 55 52 56
27z m63 13 c0 -2 -7 -7 -16 -10 -8 -3 -12 -2 -9 4 6 10 25 14 25 6z m125 -26
c3 -5 1 -10 -4 -10 -6 0 -11 5 -11 10 0 6 2 10 4 10 3 0 8 -4 11 -10z m-155
-4 c0 -2 -8 -10 -17 -17 -16 -13 -17 -12 -4 4 13 16 21 21 21 13z m150 -46 c0
-5 -5 -10 -11 -10 -5 0 -7 5 -4 10 3 6 8 10 11 10 2 0 4 -4 4 -10z m-30 -23
c0 -7 -9 -18 -19 -24 -16 -10 -18 -9 -14 7 3 11 9 17 14 14 5 -3 9 0 9 5 0 6
2 11 5 11 3 0 5 -6 5 -13z m78 -7 c-7 -11 -21 -23 -30 -26 -10 -3 -18 -10 -18
-15 0 -6 -4 -7 -10 -4 -5 3 -10 1 -10 -5 0 -6 -5 -8 -11 -4 -8 4 -4 11 10 18
12 7 19 15 15 19 -3 3 5 9 20 13 14 3 26 10 26 15 0 5 5 9 10 9 6 0 5 -8 -2
-20z m-428 -19 c0 -9 -22 -29 -50 -46 -10 -5 -43 -25 -74 -43 -31 -18 -61 -30
-67 -26 -8 4 -9 3 -5 -4 4 -7 1 -12 -8 -12 -18 0 -19 2 -10 24 3 9 14 16 23
16 14 0 14 2 1 10 -13 9 -13 10 0 11 8 1 19 1 23 0 4 -1 17 5 29 13 11 8 26
12 34 9 7 -3 30 9 51 26 38 32 53 38 53 22z m300 -1 c0 -6 -11 -16 -25 -22
-14 -6 -25 -14 -25 -17 0 -3 -14 -6 -30 -7 -36 -1 -33 3 23 32 48 26 57 28 57
14z m197 -16 c-3 -3 -12 -4 -19 -1 -8 3 -5 6 6 6 11 1 17 -2 13 -5z m173 -25
c18 -15 20 -19 7 -15 -10 3 -28 6 -40 7 -13 0 -16 3 -8 6 11 5 11 7 0 14 -12
7 -11 9 1 9 8 0 26 -10 40 -21z m-114 -26 c12 -16 15 -16 24 -3 8 13 10 13 10
-2 0 -10 3 -17 8 -16 11 3 87 -39 101 -56 16 -19 35 -21 25 -3 -4 6 -5 10 -1
7 3 -3 5 -9 4 -13 -1 -5 9 -15 23 -23 l25 -14 -35 2 c-19 1 -44 8 -55 15 -11
7 -26 13 -35 13 -8 0 9 -12 38 -26 29 -14 57 -22 64 -18 6 4 8 3 4 -4 -7 -12
25 -25 69 -28 64 -3 72 -4 91 -19 18 -15 17 -16 -16 -10 -26 5 -31 4 -20 -4 8
-6 26 -11 40 -11 51 -1 72 -11 66 -34 -4 -19 -4 -19 8 -4 12 16 15 16 47 -4
19 -11 35 -20 36 -20 2 1 9 -1 16 -4 20 -7 14 -69 -6 -68 -13 1 -14 -2 -6 -17
11 -22 34 -26 26 -4 -4 8 -2 17 3 20 6 4 10 -5 10 -19 0 -14 5 -26 10 -26 6 0
10 -7 10 -16 0 -19 38 -53 60 -54 12 0 13 -2 1 -9 -11 -7 -9 -11 8 -20 25 -14
19 -31 -12 -32 -20 -1 -20 -2 3 -9 16 -5 19 -8 8 -9 -9 -1 -20 -6 -24 -13 -5
-8 -2 -9 9 -5 12 5 17 1 17 -13 0 -27 12 -30 33 -8 11 11 12 18 5 18 -7 0 -2
7 10 16 16 11 27 12 39 5 13 -7 14 -10 4 -11 -8 0 -12 -3 -9 -6 3 -3 30 4 60
16 88 36 92 37 116 34 12 -2 22 1 22 6 0 6 6 10 13 10 6 0 0 -11 -15 -25 -28
-24 -24 -41 6 -29 9 3 16 1 16 -5 0 -6 6 -8 13 -5 8 3 18 -9 26 -31 7 -19 17
-33 22 -30 5 4 9 1 9 -6 0 -7 3 -9 6 -6 4 4 1 14 -6 22 -9 11 -10 19 -3 26 8
8 13 5 18 -10 4 -12 11 -18 17 -15 11 7 10 3 -9 -43 -3 -8 3 -13 16 -13 14 0
21 -6 21 -20 0 -14 -7 -20 -21 -20 -11 0 -18 4 -14 9 8 14 -12 23 -35 16 -12
-4 -20 -15 -20 -27 0 -12 -8 -31 -17 -42 -18 -20 -17 -20 2 -6 31 23 45 44 40
58 -3 8 8 3 24 -10 15 -13 26 -27 23 -32 -3 -5 0 -6 6 -2 7 4 12 1 12 -8 0 -9
-7 -16 -15 -16 -17 0 -19 -9 -6 -28 7 -11 9 -11 14 2 4 9 13 16 21 16 12 0 12
4 -1 31 -11 23 -12 34 -4 42 6 6 11 22 11 34 0 22 2 21 31 -12 18 -20 29 -38
25 -42 -3 -3 -1 -12 6 -20 16 -20 2 -28 -17 -9 -22 22 -28 20 -22 -5 3 -12 2
-32 -3 -44 -7 -17 -5 -25 6 -29 8 -3 14 -11 14 -17 0 -8 -5 -7 -17 2 -14 12
-16 12 -9 0 5 -7 12 -29 16 -47 6 -26 5 -34 -6 -34 -9 0 -14 11 -14 31 0 27
-2 30 -15 19 -11 -9 -12 -17 -4 -31 7 -15 6 -19 -6 -19 -19 0 -20 -27 0 -46 8
-8 17 -15 20 -14 19 1 25 -1 25 -8 0 -4 -14 -9 -31 -10 -19 -2 -28 2 -24 8 4
6 -5 10 -20 10 -15 0 -24 4 -20 10 7 12 -5 13 -23 1 -10 -6 -5 -12 18 -21 23
-10 29 -17 25 -31 -4 -12 -2 -19 6 -19 7 0 2 -9 -11 -20 -27 -23 -38 -26 -21
-6 9 10 9 16 1 21 -6 4 -8 15 -5 26 5 14 2 19 -13 19 -11 0 -22 5 -24 11 -5
16 -38 -1 -38 -20 0 -10 3 -12 8 -4 4 6 19 9 33 6 23 -4 26 -9 23 -36 -4 -33
-14 -50 -14 -24 0 19 -20 23 -21 5 0 -7 -4 -4 -9 7 -8 18 -9 17 -9 -7 -1 -20
4 -28 17 -29 12 0 10 -3 -8 -11 -15 -6 -20 -12 -12 -15 6 -3 12 -11 12 -19 0
-9 -5 -12 -11 -8 -8 4 -8 0 0 -15 10 -17 9 -21 -3 -21 -8 0 -16 11 -18 25 -2
14 -7 26 -13 27 -5 1 -16 13 -22 26 -15 29 -16 35 -4 27 6 -3 8 10 5 30 -3 28
0 37 21 51 24 15 38 73 15 59 -5 -3 -10 -15 -10 -27 0 -11 -8 -22 -20 -25 -11
-3 -17 -10 -13 -16 4 -6 -2 -8 -15 -5 -15 4 -22 2 -22 -8 0 -8 5 -14 11 -14 8
0 8 -4 0 -14 -9 -11 -9 -15 0 -18 7 -2 9 -12 5 -26 -13 -40 -26 -23 -25 31 2
77 7 89 32 82 15 -4 18 -3 9 3 -8 5 -13 22 -11 38 4 56 0 89 -12 77 -5 -5 -11
-19 -12 -31 0 -11 -4 -19 -8 -16 -4 2 -10 0 -14 -6 -3 -5 1 -10 9 -10 9 0 16
-4 16 -10 0 -5 -5 -10 -11 -10 -6 0 -8 -8 -4 -19 4 -15 0 -20 -17 -23 -17 -2
-25 -14 -35 -47 l-12 -43 31 6 c26 5 29 4 18 -9 -9 -11 -8 -19 9 -36 14 -15
18 -26 11 -33 -5 -5 -10 -15 -10 -20 0 -6 5 -4 10 4 6 9 10 10 10 3 0 -11 -27
-43 -36 -43 -3 0 -3 8 1 19 8 25 -23 37 -40 14 -7 -9 -10 -24 -8 -33 3 -11 -3
-19 -15 -22 -18 -5 -36 -51 -24 -63 3 -3 7 -14 9 -24 2 -16 -20 -24 -167 -60
-93 -24 -174 -40 -180 -36 -5 3 -10 1 -10 -6 0 -7 -3 -10 -6 -6 -3 3 -24 -1
-46 -9 -47 -16 -104 -18 -113 -4 -3 6 2 10 12 11 10 0 6 4 -11 9 -16 5 -32 7
-36 5 -4 -2 -7 2 -7 9 0 11 5 12 24 3 17 -8 29 -7 47 3 14 7 32 10 41 6 10 -4
14 -2 9 5 -4 8 1 9 15 4 12 -3 21 -2 21 4 0 5 10 12 23 14 13 3 9 5 -13 5 -56
-1 -70 1 -70 13 0 16 -24 36 -38 31 -6 -2 -12 1 -12 6 0 5 -11 10 -25 10 -28
0 -34 -24 -7 -31 9 -2 -1 -2 -23 0 -22 3 -47 5 -55 5 -8 0 -44 6 -80 13 -140
28 -493 50 -483 30 3 -5 -2 -2 -12 7 -18 17 -18 18 5 38 25 21 50 27 50 10 0
-5 5 -10 11 -10 5 0 8 4 4 9 -9 15 60 24 123 16 97 -13 106 -14 152 -23 39 -7
76 -4 155 11 11 2 23 -1 27 -7 9 -14 22 0 13 14 -5 7 -19 10 -39 6 -17 -4 -35
-6 -41 -6 -5 0 -44 2 -87 3 -42 1 -75 4 -73 6 2 2 -3 11 -12 20 -15 14 -13 16
27 23 65 11 173 14 188 5 7 -5 9 -13 6 -19 -4 -7 -2 -8 4 -4 12 7 5 37 -11 48
-14 9 58 38 94 38 15 0 31 -5 34 -10 4 -6 16 -8 27 -4 15 4 18 3 13 -7 -6 -9
-3 -11 9 -6 10 4 27 7 39 8 21 0 21 1 2 9 -15 6 -8 9 28 9 28 1 46 -3 42 -8
-3 -6 10 -8 32 -5 31 4 34 3 16 -5 -13 -6 -23 -13 -23 -16 0 -3 17 2 38 11 20
10 61 17 90 18 28 0 52 2 52 6 0 6 -70 31 -85 31 -28 -1 -81 -15 -92 -23 -9
-7 -13 -7 -13 2 0 8 -10 11 -28 8 -19 -3 -29 0 -29 9 0 8 6 12 13 9 8 -3 11 0
7 10 -6 15 8 18 45 7 14 -3 19 -9 13 -12 -6 -4 5 -7 25 -8 32 -1 34 0 17 12
-10 7 -29 16 -43 20 -14 4 -32 13 -40 20 -20 17 -60 37 -60 31 0 -3 14 -13 32
-22 28 -14 29 -17 14 -26 -9 -5 -25 -6 -34 -2 -9 4 -21 6 -25 5 -5 -1 -6 3 -2
8 3 6 -4 15 -15 21 -13 7 -20 7 -20 0 0 -5 5 -10 12 -10 6 0 9 -2 6 -5 -3 -3
-26 4 -53 16 -38 17 -52 19 -72 10 -28 -13 -36 -14 -30 -3 3 4 -7 8 -21 8 -26
2 -26 1 -4 -9 24 -11 30 -27 10 -28 -7 0 -26 -2 -42 -4 -16 -2 -37 0 -46 5
-12 6 -17 5 -17 -5 0 -8 13 -19 29 -24 15 -6 28 -15 28 -20 0 -13 -25 -14 -48
-2 -9 5 -26 5 -37 0 -18 -7 -18 -8 5 -8 20 -1 22 -3 10 -12 -11 -8 -8 -9 15
-5 25 5 27 4 12 -5 -11 -6 -34 -8 -55 -4 -32 6 -34 5 -23 -9 15 -17 8 -23 -36
-29 -12 -2 -26 -6 -29 -10 -4 -4 -19 -7 -33 -6 -14 0 -20 3 -13 6 10 4 10 8 1
19 -9 11 -8 14 8 14 27 0 59 25 45 34 -7 4 -12 14 -12 23 0 13 4 13 28 -3 23
-15 25 -15 13 -1 -11 14 -11 17 0 17 8 0 0 9 -18 20 -17 10 -36 27 -41 37 -6
10 -24 26 -41 36 -29 17 -30 17 -24 1 5 -14 3 -16 -13 -10 -10 4 -32 10 -48
13 -22 5 -27 3 -21 -7 6 -9 0 -10 -26 -5 -19 4 -40 12 -47 18 -9 7 -11 6 -6
-8 6 -15 3 -17 -14 -13 -16 4 -19 2 -15 -10 5 -11 2 -14 -10 -9 -9 3 -17 2
-17 -3 0 -6 5 -10 12 -10 6 0 9 -3 6 -6 -3 -3 -23 2 -43 10 -21 9 -52 16 -70
16 -29 0 -32 -3 -27 -22 4 -19 3 -21 -9 -12 -21 16 -51 26 -44 14 3 -6 -5 -10
-19 -10 -14 0 -28 -4 -31 -10 -3 -5 -19 -10 -34 -10 -15 0 -32 -5 -38 -11 -8
-8 -13 -7 -18 2 -5 8 -4 10 3 5 7 -4 12 -2 12 3 0 18 -13 12 -47 -21 -28 -27
-33 -29 -39 -14 -6 15 -7 15 -19 -1 -7 -9 -11 -23 -8 -30 7 -19 23 -5 17 15
-5 14 -4 14 6 -1 11 -18 13 -18 27 2 8 12 18 19 23 16 4 -3 11 1 13 7 4 9 6 9
6 1 1 -6 -5 -18 -12 -25 -8 -7 -13 -21 -11 -31 1 -9 -2 -15 -7 -11 -5 3 -7 9
-4 14 3 5 -4 8 -15 7 -11 -1 -20 -5 -20 -10 0 -10 -43 -5 -74 8 -14 6 -17 5
-12 -3 5 -9 1 -10 -16 -4 -25 9 -89 0 -73 -10 6 -3 27 -9 48 -13 20 -4 40 -12
44 -18 4 -6 0 -8 -10 -4 -55 21 -98 27 -115 17 -16 -11 -16 -11 1 -6 10 3 29
-1 42 -10 27 -18 42 -46 20 -37 -8 3 -13 8 -11 12 3 4 -4 12 -15 19 -10 7 -19
9 -19 5 1 -15 38 -53 52 -53 10 0 9 -3 -2 -10 -8 -5 -11 -10 -6 -10 5 0 2 -8
-5 -17 -13 -16 -12 -17 3 -5 26 21 63 -3 60 -38 -1 -10 37 -9 43 0 3 5 16 6
28 2 25 -8 52 -8 87 2 48 12 75 13 88 4 14 -12 16 -32 2 -23 -5 3 -10 -3 -10
-14 0 -12 -6 -21 -14 -21 -8 0 -18 -5 -22 -11 -4 -8 0 -9 15 -4 11 3 21 2 21
-3 0 -6 -28 -13 -62 -17 -35 -3 -115 -15 -179 -26 -172 -28 -258 -34 -318 -19
-31 7 -51 17 -51 26 0 8 -4 22 -9 32 -6 9 -16 31 -24 47 -20 44 -41 79 -51 87
-6 4 -4 14 5 24 12 16 12 17 -3 11 -16 -6 -23 3 -19 26 0 4 -6 7 -14 7 -8 0
-24 9 -35 20 -23 23 -22 24 17 10 26 -9 27 -9 9 5 -11 8 -28 15 -37 15 -10 0
-21 5 -25 12 -5 7 -2 9 7 4 8 -4 3 1 -11 12 -13 11 -28 18 -32 16 -4 -3 -5 1
-3 8 4 9 -8 19 -31 27 -20 7 -44 20 -54 30 -34 32 -58 49 -79 56 -12 3 -21 11
-21 16 0 5 -7 9 -15 9 -9 0 -12 6 -8 16 4 12 0 14 -18 9 -18 -5 -30 0 -47 19
-12 15 -28 26 -36 26 -7 0 -19 7 -26 15 -6 8 -39 17 -71 21 l-60 7 5 49 c6 48
41 112 58 102 4 -3 6 -9 3 -14 -3 -5 0 -12 6 -16 9 -5 10 1 5 20 -4 16 -3 25
2 22 6 -3 12 5 14 19 3 14 1 25 -6 25 -6 0 -3 7 7 14 18 14 17 14 -2 21 -12 3
-21 11 -21 16 0 6 5 7 10 4 6 -3 13 1 16 9 5 12 11 13 24 6 26 -14 84 -12 98
2 7 7 12 9 12 5 0 -4 19 2 42 14 23 12 57 23 75 24 18 2 37 6 43 10 18 11 53
15 125 15 113 -1 179 0 195 3 46 10 140 41 140 46 0 3 20 17 45 30 25 13 45
28 45 32 0 5 -21 -3 -46 -16 -26 -14 -50 -22 -55 -19 -5 3 -9 -3 -9 -12 0 -10
-3 -14 -6 -11 -4 3 -16 2 -28 -4 -11 -6 -4 5 17 24 42 39 133 81 142 66 4 -5
14 -5 26 1 12 7 19 7 19 1 0 -7 8 -7 23 -2 12 5 24 8 27 8 3 0 31 3 62 7 64 8
88 26 36 27 l-33 0 35 14 c61 23 138 45 159 45 12 0 20 6 19 13 -2 6 3 11 10
9 7 -1 22 7 34 18 11 10 25 17 29 14 9 -5 114 60 124 77 3 4 12 6 20 3 8 -3
30 4 50 16 19 12 35 19 35 16 0 -3 23 3 50 14 28 11 50 17 50 13 0 -4 5 -2 12
5 7 7 21 12 31 12 17 0 18 -2 6 -17 -13 -17 -13 -17 6 -1 33 28 66 37 139 37
54 1 72 -3 82 -16z m-906 3 c0 -9 -30 -14 -35 -6 -4 6 3 10 14 10 12 0 21 -2
21 -4z m1053 -8 c-6 -11 -51 -10 -57 0 -3 5 10 8 29 8 18 -1 31 -4 28 -8z m85
-52 l26 -25 -25 6 c-13 3 -35 14 -49 23 -14 10 -34 20 -45 23 -11 4 0 5 24 2
30 -2 52 -11 69 -29z m-1368 14 c0 -5 -5 -10 -11 -10 -5 0 -7 5 -4 10 3 6 8
10 11 10 2 0 4 -4 4 -10z m228 -18 c-4 -22 -43 -33 -64 -18 -16 12 -15 14 12
28 33 17 56 12 52 -10z m76 13 c-4 -8 -11 -12 -16 -9 -6 4 -5 10 3 15 19 12
19 11 13 -6z m-150 -33 c2 -4 -4 -13 -15 -20 -15 -10 -19 -10 -19 1 0 24 23
36 34 19z m462 -23 c-13 -10 -30 -19 -38 -19 -8 0 -18 -4 -23 -9 -6 -5 -19
-11 -30 -13 -11 -1 -27 -11 -36 -20 -16 -18 -47 -9 -35 11 11 18 -8 13 -31 -8
-25 -23 -203 -77 -203 -61 0 21 65 59 117 70 32 6 64 13 71 15 6 3 12 -1 12
-7 0 -7 4 -7 14 1 7 6 20 9 28 6 8 -3 33 4 54 17 34 19 37 20 24 3 -17 -20
-19 -21 55 24 38 23 54 16 21 -10z m-207 -5 c-7 -8 -21 -13 -31 -11 -10 3 -18
1 -18 -4 0 -5 -9 -9 -21 -9 -12 0 -17 4 -14 11 4 6 9 8 12 6 2 -3 16 1 31 9
38 20 59 19 41 -2z m-415 -43 c-10 -17 -21 -28 -26 -25 -5 3 -7 2 -6 -3 2 -4
-12 -25 -31 -46 -30 -32 -40 -37 -72 -35 l-38 2 15 28 c14 26 18 28 57 22 l42
-7 -20 23 c-11 13 -14 20 -7 16 15 -9 44 23 35 38 -4 5 -2 7 3 4 5 -3 18 -2
29 3 34 13 37 10 19 -20z m261 19 c-3 -5 -16 -10 -28 -9 -20 1 -20 2 3 9 14 4
26 8 28 9 2 1 0 -3 -3 -9z m1180 -18 c-2 -2 -23 -1 -46 3 -23 4 -37 10 -30 14
11 7 84 -10 76 -17z m-1300 -6 c12 -12 12 -16 0 -26 -7 -6 -24 -10 -37 -8 -18
2 -24 -2 -26 -22 -2 -19 -1 -22 7 -10 5 8 13 12 16 8 8 -8 -31 -48 -46 -48 -5
0 -7 6 -3 13 6 9 3 8 -8 -1 -14 -11 -21 -11 -40 -1 -22 12 -22 11 -8 -7 8 -10
11 -16 6 -12 -5 4 -16 3 -26 -2 -9 -5 -27 -6 -39 -3 -21 5 -19 10 35 64 56 56
85 71 99 49 4 -6 12 -4 21 5 19 19 31 19 49 1z m67 -13 c-9 -4 -10 -8 -2 -18
18 -21 -16 -48 -42 -34 -21 11 -21 12 3 25 13 7 20 14 14 14 -5 0 -3 5 5 10 8
5 20 9 25 9 6 0 4 -3 -3 -6z m-647 -23 c3 -5 1 -10 -4 -10 -6 0 -11 5 -11 10
0 6 2 10 4 10 3 0 8 -4 11 -10z m16 -28 c-24 -35 -61 -68 -61 -55 0 5 14 22
30 38 17 16 30 35 30 42 0 8 5 11 10 8 7 -4 3 -17 -9 -33z m-41 -12 c-6 -11
-14 -20 -18 -20 -4 0 -13 -13 -20 -30 -13 -29 -32 -41 -32 -20 0 6 5 10 10 10
6 0 13 8 17 18 6 16 43 62 50 62 2 0 -1 -9 -7 -20z m250 5 c-7 -8 -16 -15 -21
-15 -5 0 -6 7 -3 15 4 8 13 15 21 15 13 0 13 -3 3 -15z m374 -17 c-3 -4 -15
-8 -27 -8 -15 0 -18 3 -9 8 17 11 43 11 36 0z m-454 -38 c0 -5 -5 -10 -11 -10
-5 0 -7 5 -4 10 3 6 8 10 11 10 2 0 4 -4 4 -10z m104 -2 c-6 -9 -3 -9 9 0 9 8
21 11 27 7 15 -9 4 -20 -42 -39 l-38 -15 22 30 c22 29 36 40 22 17z m140 -14
c9 -3 13 -10 10 -15 -8 -13 10 -11 25 4 10 10 11 9 6 -5 -8 -20 -8 -20 -45
-24 -14 -2 -41 -7 -60 -12 -19 -4 -46 -6 -59 -2 l-25 6 35 27 c33 26 78 34
113 21z m4621 0 c13 -5 14 -9 4 -15 -10 -6 -9 -12 7 -26 11 -10 25 -30 31 -44
14 -33 9 -116 -10 -145 -3 -6 4 -23 18 -38 13 -14 19 -26 12 -26 -7 0 -4 -5 5
-10 9 -6 19 -24 23 -40 4 -17 10 -30 14 -30 12 0 43 -121 38 -148 -3 -14 -1
-36 4 -49 6 -16 5 -23 -4 -23 -8 0 -8 -3 2 -9 9 -6 11 -15 6 -27 -4 -11 -9
-27 -10 -36 -1 -9 -26 -40 -56 -69 -30 -28 -47 -48 -39 -44 10 6 8 1 -4 -13
-25 -29 -91 -31 -105 -3 -6 10 -8 21 -5 24 3 3 -4 8 -15 12 -12 3 -21 14 -21
24 0 10 -9 30 -21 45 -11 14 -19 36 -18 48 2 13 -2 39 -8 58 -7 19 -10 48 -8
65 2 16 7 52 10 80 9 71 60 172 91 179 32 9 32 43 0 52 -14 3 -27 12 -30 21
-3 8 -10 11 -16 8 -5 -3 -10 -1 -10 4 0 6 5 11 10 11 6 0 10 5 10 11 0 5 -4 8
-9 4 -5 -3 -12 -1 -16 5 -3 5 -1 10 5 10 6 0 8 5 5 10 -3 6 1 10 9 10 23 0 20
17 -4 23 -11 3 -20 10 -20 16 0 6 7 8 16 4 19 -7 64 16 64 34 0 7 7 13 16 13
10 0 14 6 10 15 -6 17 -4 18 19 9z m-2834 -33 c-15 -10 -3 -41 15 -41 8 0 14
6 14 14 0 20 52 36 74 24 14 -8 15 -13 5 -24 -10 -12 -9 -13 6 -8 13 5 16 4
11 -4 -4 -7 -1 -15 8 -18 9 -3 14 -10 11 -14 -8 -13 23 -33 40 -26 9 3 14 2
10 -3 -3 -5 0 -11 6 -13 6 -2 -16 -4 -49 -3 -33 0 -64 3 -68 8 -4 4 -14 7 -21
7 -18 0 -44 25 -36 34 4 3 -1 6 -9 6 -9 0 -23 15 -32 34 -23 48 -21 59 5 45
15 -7 18 -13 10 -18z m-1896 -42 c4 -5 11 -7 16 -4 5 4 9 1 9 -5 0 -8 -17 -10
-55 -6 -34 3 -53 1 -50 -4 5 -8 -9 -14 -17 -8 -2 1 -13 -4 -25 -11 -13 -6 -23
-8 -23 -4 0 10 32 39 51 45 25 9 88 7 94 -3z m2076 -16 c13 -16 12 -17 -3 -4
-10 7 -18 15 -18 17 0 8 8 3 21 -13z m194 -143 c3 -5 2 -10 -4 -10 -5 0 -13 5
-16 10 -3 6 -2 10 4 10 5 0 13 -4 16 -10z m50 -30 c-3 -5 -11 -10 -16 -10 -6
0 -7 5 -4 10 3 6 11 10 16 10 6 0 7 -4 4 -10z m1942 -167 c17 -15 20 -22 11
-26 -8 -3 -3 -9 13 -15 43 -17 71 -84 72 -172 0 -78 -5 -134 -18 -184 -6 -23
-5 -27 5 -21 9 6 11 4 5 -6 -11 -17 -35 -47 -57 -71 -18 -18 -54 -26 -44 -9 4
5 -3 7 -14 4 -11 -3 -20 0 -20 6 0 11 -34 94 -51 121 -4 8 -16 31 -25 50 -9
19 -22 47 -30 62 -8 15 -17 40 -19 55 -1 16 -4 33 -5 38 -4 16 12 75 20 75 4
0 7 14 8 32 1 34 46 81 71 73 8 -3 11 0 8 9 -3 8 -1 17 6 19 12 4 24 -3 64
-40z m-1765 -13 c-8 -21 -9 -22 -16 -5 -4 11 -2 22 6 26 17 11 20 6 10 -21z
m28 -75 c0 -8 -4 -15 -10 -15 -5 0 -10 7 -10 15 0 8 5 15 10 15 6 0 10 -7 10
-15z m-30 -31 c0 -14 -4 -23 -9 -20 -5 3 -7 15 -4 26 7 28 13 25 13 -6z m-80
-88 c0 -2 -7 -6 -15 -10 -8 -3 -15 -1 -15 4 0 6 7 10 15 10 8 0 15 -2 15 -4z
m-955 -57 l20 -9 -20 1 c-42 2 -55 -1 -55 -16 0 -9 -9 -15 -22 -14 -14 0 -17
3 -9 6 7 3 22 14 32 24 21 21 25 22 54 8z m-375 -9 c0 -5 -2 -10 -4 -10 -3 0
-8 5 -11 10 -3 6 -1 10 4 10 6 0 11 -4 11 -10z m460 -70 c8 -5 11 -10 5 -10
-5 0 -17 5 -25 10 -8 5 -10 10 -5 10 6 0 17 -5 25 -10z m-2266 -29 c-10 -10
-119 -43 -109 -33 3 4 30 16 58 28 51 20 70 22 51 5z m181 8 c22 0 75 -21 75
-30 0 -3 13 -4 30 -1 21 3 32 0 36 -12 3 -9 16 -16 28 -17 20 0 20 -1 1 -9
-11 -5 -15 -9 -10 -10 33 -5 -53 -17 -100 -14 -68 5 -95 18 -95 44 0 11 -4 20
-10 20 -5 0 -14 10 -21 21 -10 20 -9 21 17 15 16 -4 38 -7 49 -7z m2876 -9
c21 -12 24 -61 2 -53 -13 5 -17 18 -14 37 1 5 -4 13 -11 17 -19 12 0 11 23 -1z
m-1897 -26 c15 -6 11 -34 -6 -34 -5 0 -6 5 -3 10 3 6 4 10 1 10 -2 0 -13 3
-23 7 -16 6 -16 5 -4 -10 7 -9 10 -17 6 -17 -5 0 -1 -8 8 -18 16 -18 15 -18
-13 -14 -31 4 -43 32 -14 32 13 0 14 3 5 13 -18 22 7 35 43 21z m2873 -18 c26
-4 25 -16 -1 -16 -70 0 -147 -78 -263 -266 -28 -44 -53 -94 -57 -110 -12 -48
-40 -103 -53 -104 -7 0 -14 -8 -14 -17 -1 -16 -2 -16 -6 -1 -3 11 -13 16 -31
14 -21 -3 -27 -9 -30 -35 -2 -25 2 -37 22 -52 26 -20 26 -23 21 -117 -5 -96
-6 -97 -45 -137 -43 -44 -83 -126 -95 -192 -6 -41 4 -58 20 -33 4 6 40 26 80
45 85 41 147 105 101 105 -23 0 -27 29 -10 63 10 18 17 58 18 96 1 48 7 75 23
101 14 24 21 52 22 86 0 69 23 124 52 124 21 0 21 1 -5 21 -30 24 -33 41 -9
60 9 8 26 37 39 64 28 63 107 161 158 196 45 30 117 36 153 13 12 -8 31 -14
42 -14 11 0 27 -10 36 -23 25 -39 48 -184 41 -269 -5 -77 -40 -234 -56 -253
-4 -5 -20 -41 -35 -80 -42 -108 -107 -234 -155 -300 -16 -22 -55 -78 -87 -125
-62 -92 -88 -119 -115 -120 -10 0 -24 -12 -32 -27 -17 -34 -67 -72 -98 -76
-19 -2 -24 5 -34 51 -13 57 -28 82 -50 82 -21 0 -17 -34 7 -64 11 -14 22 -37
23 -51 2 -14 8 -31 14 -37 15 -15 16 -48 1 -48 -6 0 -13 9 -16 19 -3 14 -17
22 -45 26 -79 14 -136 107 -125 205 6 57 0 75 -19 59 -11 -9 -15 -7 -21 7 -9
23 -10 209 -2 289 4 33 4 54 2 48 -10 -29 -21 -10 -12 20 6 17 12 46 15 62 3
17 8 37 11 45 3 8 7 17 8 20 11 44 54 142 64 150 20 16 27 55 14 82 -8 15 -12
36 -9 45 3 10 8 36 12 58 7 47 35 114 64 155 15 21 30 30 50 30 16 0 31 4 34
9 4 5 25 12 49 16 40 7 76 21 87 34 9 11 124 64 155 72 17 4 41 5 55 2 14 -3
30 -6 37 -7z m-1080 -18 c-3 -8 -6 -5 -6 6 -1 11 2 17 5 13 3 -3 4 -12 1 -19z
m-3127 2 c-8 -5 -22 -9 -30 -9 -10 0 -8 3 5 9 27 12 43 12 25 0z m3207 4 c-3
-3 -12 -4 -19 -1 -8 3 -5 6 6 6 11 1 17 -2 13 -5z m-3260 -20 c-3 -3 -12 -4
-19 -1 -8 3 -5 6 6 6 11 1 17 -2 13 -5z m3303 -4 c0 -5 -4 -10 -10 -10 -5 0
-10 5 -10 10 0 6 5 10 10 10 6 0 10 -4 10 -10z m-133 -32 c-3 -8 -6 -5 -6 6
-1 11 2 17 5 13 3 -3 4 -12 1 -19z m83 15 c0 -5 -5 -15 -10 -23 -8 -12 -10
-11 -10 8 0 12 5 22 10 22 6 0 10 -3 10 -7z m-3380 -17 c-24 -9 -30 -15 -20
-19 8 -3 -8 -6 -37 -6 -28 -1 -59 -4 -69 -8 -12 -4 -15 -3 -10 5 4 7 22 12 39
13 18 0 48 7 67 14 19 7 42 13 50 13 8 0 -1 -5 -20 -12z m3265 -15 c-3 -6 -11
-11 -16 -11 -5 0 -4 6 3 14 14 16 24 13 13 -3z m-3077 -8 c-32 -2 -86 -2 -120
0 -35 2 -9 3 57 3 66 0 94 -1 63 -3z m3112 -12 c0 -13 -44 -21 -54 -11 -7 7
-2 10 12 10 12 0 22 5 22 11 0 5 5 7 10 4 6 -3 10 -10 10 -14z m-2993 3 c-3
-3 -12 -4 -19 -1 -8 3 -5 6 6 6 11 1 17 -2 13 -5z m1414 -37 c-10 -9 -11 -8
-5 6 3 10 9 15 12 12 3 -3 0 -11 -7 -18z m572 -18 c26 -6 47 -15 47 -20 0 -6
4 -8 9 -5 5 3 11 -1 15 -9 4 -10 -1 -15 -14 -15 -11 0 -20 4 -20 9 0 5 -9 7
-19 4 -21 -5 -18 -35 3 -31 11 3 16 -4 16 -22 0 -11 -33 -13 -67 -4 -14 4 -20
11 -16 18 4 7 1 6 -9 -2 -17 -13 -99 -7 -133 12 -11 5 -23 11 -27 12 -5 1 -11
3 -15 4 -5 1 -10 2 -13 2 -3 0 -4 15 -2 35 l4 35 97 -6 c53 -4 117 -12 144
-17z m-1433 -3 c0 -9 7 -12 19 -9 23 6 84 -48 63 -55 -16 -5 -112 27 -112 38
0 17 12 40 21 40 5 0 9 -6 9 -14z m141 -68 c5 -10 6 -18 2 -18 -16 0 -31 16
-38 40 -7 23 -6 24 9 11 9 -8 22 -23 27 -33z m4384 22 c-5 -15 -1 -22 17 -29
13 -6 17 -10 9 -10 -8 -1 -11 -4 -8 -8 4 -3 -2 -13 -14 -21 -11 -8 -22 -12
-24 -10 -9 9 -15 69 -6 64 5 -4 12 3 16 14 3 11 9 20 11 20 3 0 2 -9 -1 -20z
m-3638 -86 c-3 -3 -12 -4 -19 -1 -8 3 -5 6 6 6 11 1 17 -2 13 -5z m160 0 c-3
-3 -12 -4 -19 -1 -8 3 -5 6 6 6 11 1 17 -2 13 -5z m663 -48 c0 -3 -4 -8 -10
-11 -5 -3 -10 -1 -10 4 0 6 5 11 10 11 6 0 10 -2 10 -4z m-1055 -32 c14 -9 25
-12 25 -6 0 6 16 8 40 5 22 -3 40 -1 40 4 0 5 23 9 52 8 47 0 53 -2 58 -25 6
-24 6 -24 18 -5 10 17 11 15 12 -23 0 -25 6 -50 15 -58 8 -9 15 -13 15 -9 0 4
7 -1 16 -10 16 -16 12 -51 -5 -41 -5 4 -19 -7 -30 -23 -23 -31 -27 -51 -11
-51 5 0 7 8 4 18 -3 9 2 5 11 -10 16 -28 35 -37 35 -17 0 5 -5 7 -12 3 -7 -5
-8 -3 -3 5 5 9 10 10 18 2 16 -16 27 -13 27 7 1 15 2 15 11 -2 6 -10 7 -21 3
-25 -5 -3 -10 -13 -12 -22 -1 -11 5 -16 20 -15 13 1 26 -3 30 -9 5 -6 8 -3 8
6 0 9 -7 19 -15 23 -8 3 -15 0 -15 -6 0 -6 -3 -9 -6 -5 -3 3 -3 16 1 28 7 20
8 20 17 6 5 -10 16 -17 24 -17 9 0 12 -5 8 -12 -4 -6 -3 -8 3 -5 6 4 8 17 6
31 -4 20 0 25 26 31 17 4 31 11 31 16 0 6 8 8 18 5 45 -13 173 -15 204 -2 18
8 65 17 103 21 39 4 75 10 80 14 6 4 20 8 31 9 31 1 35 -29 34 -254 0 -287
-12 -327 -111 -375 -53 -26 -55 -26 -274 -24 -192 2 -229 5 -294 24 -40 12
-79 20 -85 18 -6 -2 -28 4 -48 14 -36 19 -83 83 -93 128 -3 12 -7 29 -9 39 -2
9 -9 53 -16 97 -6 44 -18 103 -27 130 -19 58 -86 160 -115 176 -27 15 -49 71
-42 108 8 40 34 61 91 77 62 17 60 17 88 -2z m1819 -47 c10 -37 7 -92 -6 -105
-10 -10 -10 -15 2 -22 13 -8 12 -10 -2 -10 -26 0 -22 -31 9 -64 24 -26 25 -29
6 -24 -17 4 -19 2 -15 -15 3 -14 1 -18 -6 -13 -7 4 -12 3 -12 -3 0 -5 6 -12
13 -15 10 -5 10 -7 0 -12 -7 -3 -13 -17 -13 -31 0 -25 -6 -30 -10 -8 -1 6 -7
19 -13 30 -6 11 -11 25 -12 30 0 6 -10 11 -22 13 -20 3 -23 -1 -23 -27 0 -17
-4 -31 -9 -31 -6 0 -6 -13 1 -32 10 -29 12 -30 24 -13 15 20 16 20 32 -11 9
-17 8 -26 -8 -43 -10 -12 -22 -23 -27 -24 -10 -2 -5 -20 8 -28 14 -8 -38 -49
-55 -43 -11 4 -17 -3 -21 -23 -8 -38 -21 -59 -34 -55 -6 1 -11 -5 -11 -14 0
-8 5 -12 10 -9 15 9 12 -8 -6 -33 -10 -15 -14 -35 -11 -55 6 -40 -10 -77 -25
-56 -8 11 -9 10 -4 -3 3 -9 1 -40 -3 -69 -7 -44 -6 -54 11 -71 39 -39 123 -52
131 -20 4 13 5 11 6 -5 1 -16 -5 -23 -16 -23 -15 0 -15 -2 -4 -9 12 -8 12 -13
3 -24 -10 -11 -8 -19 6 -38 l19 -23 -1 40 c-1 40 16 70 33 59 6 -3 8 -12 5
-19 -3 -8 0 -17 7 -22 7 -4 15 -2 17 4 5 17 22 15 22 -3 0 -8 5 -15 10 -15 6
0 10 11 10 24 0 13 7 27 16 30 25 10 29 -1 10 -29 -10 -15 -15 -33 -12 -41 3
-8 -3 -25 -14 -36 -28 -30 -26 -51 3 -43 15 4 18 4 8 -3 -16 -12 -21 -52 -8
-69 6 -9 5 -13 -2 -13 -7 0 -10 -4 -7 -9 4 -5 2 -11 -3 -13 -5 -1 -11 -22 -13
-45 -4 -33 -2 -40 9 -36 8 3 12 12 9 19 -3 8 -1 14 4 14 16 0 11 -36 -6 -51
-14 -11 -18 -11 -29 5 -12 16 -14 15 -20 -14 -4 -19 -2 -36 5 -45 7 -8 10 -20
7 -27 -4 -8 -6 -7 -6 5 -1 27 -25 20 -45 -14 -18 -30 -16 -79 4 -79 17 0 11
-14 -25 -55 -19 -22 -35 -44 -35 -48 0 -4 -13 -13 -29 -18 -22 -8 -31 -18 -35
-45 -4 -19 -12 -34 -18 -34 -6 0 -8 -11 -5 -26 3 -17 0 -28 -10 -31 -8 -3 -12
-11 -10 -17 3 -6 -8 -27 -24 -45 -23 -28 -31 -32 -43 -22 -16 13 -86 5 -86
-10 0 -5 5 -9 11 -9 19 0 -15 -43 -36 -46 -11 -2 -25 -10 -31 -18 -6 -9 -20
-17 -30 -17 -17 -1 -17 -2 -1 -6 9 -2 17 -10 17 -16 0 -7 4 -6 10 3 5 8 10 11
10 5 0 -14 -20 -42 -20 -30 -1 6 -6 -1 -12 -15 -6 -15 -12 -20 -15 -12 -9 23
-22 12 -29 -23 -3 -19 -10 -35 -15 -35 -16 0 -22 29 -9 45 13 16 4 39 -12 29
-6 -4 -15 0 -20 7 -10 14 -7 -17 6 -71 4 -14 -2 -6 -13 16 -20 43 -38 61 -49
49 -3 -3 0 -10 7 -15 11 -6 10 -15 -8 -43 -13 -22 -27 -34 -36 -31 -8 3 -22 1
-32 -5 -13 -7 -14 -10 -4 -11 8 0 12 -3 9 -6 -4 -3 -16 -1 -27 6 -14 7 -21 7
-21 0 0 -5 -5 -10 -11 -10 -14 0 -39 -26 -40 -42 0 -8 -2 -9 -5 -2 -3 7 -15 9
-27 7 -18 -5 -20 -3 -9 8 6 7 12 19 12 27 0 12 -3 12 -15 2 -29 -24 -15 1 17
30 l32 30 -32 6 c-36 7 -40 19 -15 46 14 16 14 18 1 18 -17 0 -28 -20 -28 -49
0 -9 -9 -25 -21 -35 -13 -11 -19 -25 -16 -37 3 -10 1 -16 -4 -13 -6 3 -7 -5
-3 -20 4 -19 2 -28 -10 -32 -9 -3 -16 -14 -16 -23 -1 -15 -2 -15 -13 0 -9 12
-18 14 -36 7 -13 -4 -33 -6 -45 -2 -19 6 -19 5 -4 -7 25 -21 33 -63 14 -78
-11 -9 -16 -10 -16 -2 0 16 -26 13 -41 -5 -10 -12 -10 -17 -1 -23 17 -10 -33
-32 -54 -24 -14 5 -15 1 -10 -25 7 -31 -10 -55 -23 -34 -4 7 -12 8 -21 2 -12
-8 -12 -10 -1 -10 11 0 11 -3 0 -17 -10 -12 -10 -15 -1 -9 23 14 52 -4 52 -31
0 -22 -3 -24 -25 -19 -14 4 -25 2 -25 -4 0 -5 5 -10 10 -10 20 0 9 -19 -20
-33 -27 -14 -30 -14 -35 3 -10 32 -42 19 -54 -22 -10 -31 -18 -39 -49 -48 -20
-5 -48 -10 -61 -10 -20 0 -22 4 -17 25 4 14 2 25 -4 25 -5 0 -10 -10 -10 -22
-1 -34 -22 -67 -54 -83 -28 -15 -28 -14 -22 10 4 14 2 25 -4 25 -5 0 -10 -9
-10 -19 0 -13 -9 -21 -30 -26 -17 -4 -28 -11 -24 -16 12 -20 -9 -7 -35 22 -18
19 -31 27 -35 20 -4 -6 -13 -11 -19 -11 -8 0 -7 3 2 9 7 5 10 14 7 20 -7 10 6
16 27 12 5 -1 6 3 3 8 -4 5 -2 12 4 16 13 8 13 25 -1 25 -5 0 -7 -5 -3 -12 5
-8 2 -9 -10 -5 -11 4 -26 -2 -42 -18 -13 -13 -24 -22 -24 -18 0 3 -10 -1 -23
-10 -18 -12 -24 -12 -35 -1 -6 7 -12 17 -12 23 0 5 -11 8 -25 7 -17 -1 -24 -6
-22 -16 2 -8 9 -14 15 -12 20 4 14 -16 -8 -28 -15 -8 -20 -8 -21 2 0 10 -2 10
-6 1 -6 -17 -28 -16 -42 1 -9 10 -8 15 4 20 8 3 15 13 15 21 0 10 -5 13 -12 9
-8 -5 -9 -2 -5 9 3 10 2 17 -2 17 -5 0 -11 -5 -13 -10 -2 -6 -20 -13 -41 -16
-32 -4 -39 -1 -49 21 -6 14 -15 25 -20 25 -10 0 -11 -14 -1 -24 10 -10 12 -36
3 -36 -5 0 -11 4 -14 9 -3 4 -17 6 -31 3 -21 -3 -27 0 -32 17 -3 11 -10 21
-15 21 -6 0 -7 11 -4 25 4 14 2 25 -4 25 -5 0 -10 5 -10 11 0 16 -28 41 -39
35 -10 -6 -41 36 -41 56 0 7 -9 24 -20 38 -11 14 -20 35 -20 48 0 13 -4 20
-10 17 -6 -3 -10 -1 -10 5 0 7 9 14 20 17 11 3 17 9 15 14 -10 16 7 57 26 62
11 3 19 0 19 -6 0 -7 5 -5 10 3 5 8 7 23 4 33 -5 15 -1 17 23 11 29 -7 90 -47
110 -74 6 -8 15 -12 18 -8 4 4 16 3 26 -2 14 -8 19 -6 24 11 6 19 8 19 31 5
28 -19 34 -20 34 -5 0 5 -4 7 -10 4 -5 -3 -10 -2 -10 2 0 12 59 33 76 26 19
-7 18 11 -1 27 -10 8 -12 17 -6 24 7 8 3 16 -12 26 -12 8 -25 13 -29 12 -4 -1
-12 7 -18 18 -6 11 -18 20 -26 20 -11 0 -14 6 -10 16 3 9 6 22 6 29 0 8 9 16
19 20 20 6 36 34 25 44 -3 3 -10 -2 -15 -11 -9 -15 -12 -16 -47 -1 -51 20 -56
27 -41 54 19 37 38 52 59 46 13 -3 21 1 25 14 4 10 15 19 25 19 10 0 26 7 34
16 15 14 17 14 32 0 8 -9 23 -17 32 -17 9 -1 24 -2 32 -3 9 0 15 -10 14 -23 0
-16 8 -25 27 -32 32 -11 46 -10 76 7 12 7 33 12 48 12 14 0 37 11 51 25 26 26
113 47 164 38 22 -3 27 0 26 19 -1 14 -13 31 -31 43 -16 10 -32 22 -35 25 -21
22 -69 34 -133 32 -184 -5 -194 -3 -308 51 -52 25 -115 52 -140 61 -56 18
-141 14 -184 -10 -30 -16 -31 -16 -98 30 -37 25 -76 46 -86 46 -11 0 -30 -12
-43 -28 -32 -38 -60 -36 -74 7 -6 19 -14 29 -17 23 -4 -5 -16 -8 -27 -5 -11 3
-17 9 -14 15 3 5 0 15 -6 23 -6 8 -9 18 -6 24 7 10 -21 24 -34 16 -4 -3 -13 2
-20 10 -10 12 -10 15 3 15 8 0 17 7 20 14 4 10 1 13 -9 9 -10 -4 -15 -1 -13 8
4 20 -22 70 -48 96 -13 12 -23 32 -23 43 0 13 -4 19 -12 14 -7 -4 -8 -3 -4 4
4 7 4 18 -1 25 -4 6 -8 14 -8 17 -1 3 -9 22 -18 43 -9 21 -19 54 -23 75 -4 20
-12 44 -20 52 -7 8 -20 57 -29 109 -9 51 -23 100 -31 108 -33 34 -17 40 131
47 156 8 158 9 205 80 22 34 40 68 40 74 0 7 5 12 10 12 6 0 9 3 8 8 -1 4 4
18 11 31 20 37 68 180 81 246 17 84 36 132 65 161 28 28 45 30 84 9 24 -12 70
-85 71 -112 0 -5 12 -30 25 -58 24 -49 24 -50 5 -53 -11 -2 -20 -10 -20 -18 0
-17 26 -19 36 -3 4 6 20 -14 38 -47 153 -285 216 -348 409 -406 175 -52 362
-71 558 -57 136 10 209 34 253 82 53 58 67 107 87 306 26 265 28 270 129 304
25 9 71 27 102 41 85 38 210 77 260 80 24 2 64 15 90 29 31 17 50 22 54 15 5
-7 10 -6 15 4 12 22 56 11 63 -15z m-1019 -27 c-8 -13 -44 -19 -42 -6 1 6 6
14 11 18 12 8 37 -2 31 -12z m-63 3 c-6 -2 -10 -8 -8 -12 3 -3 -10 -7 -27 -7
-18 0 -38 -2 -46 -5 -7 -2 -15 1 -18 8 -3 8 12 13 44 16 26 2 53 4 58 4 6 1 4
-1 -3 -4z m-1815 -27 c-3 -8 2 -16 14 -19 10 -3 19 -1 19 4 0 5 -4 9 -10 9 -5
0 -10 4 -10 9 0 5 12 9 26 9 17 0 24 -5 20 -14 -3 -8 -1 -14 5 -14 5 0 12 7
16 17 5 14 8 13 14 -5 5 -13 17 -22 29 -22 11 0 20 -4 20 -9 0 -13 90 -8 98 6
5 8 12 8 26 -2 10 -8 15 -18 11 -24 -9 -16 17 -13 43 5 22 15 22 15 22 -38 0
-46 3 -54 24 -64 27 -12 62 4 91 42 10 14 14 15 15 5 0 -11 4 -9 15 5 13 17
14 15 9 -31 -24 -195 -64 -340 -110 -394 -27 -31 -44 -40 -106 -55 -61 -16
-89 -17 -173 -10 -67 6 -86 10 -57 12 44 3 53 17 26 37 -13 9 -14 16 -5 32 6
13 7 23 2 25 -6 2 -12 24 -15 49 -6 52 -15 81 -28 90 -5 3 -10 16 -13 28 -9
46 -17 61 -33 61 -13 0 -14 2 -3 9 8 5 9 11 3 15 -14 8 -13 217 1 234 13 16
20 15 14 -2z m1753 -36 c0 -11 -7 -20 -15 -20 -18 0 -19 6 -2 25 16 19 17 18
17 -5z m3362 -114 c59 -9 88 -18 88 -27 0 -6 4 -8 9 -5 11 7 41 -54 41 -84 0
-20 -16 -59 -29 -70 -9 -8 -41 -106 -41 -126 0 -16 2 -17 10 -4 8 12 10 8 11
-15 1 -16 1 -36 0 -42 -1 -7 3 -13 9 -13 6 0 8 -10 4 -25 -4 -15 -1 -32 6 -40
7 -8 9 -15 6 -15 -4 0 -2 -8 3 -18 7 -13 6 -23 -1 -30 -9 -9 -9 -12 1 -12 9 0
8 -5 -3 -16 -9 -8 -16 -25 -16 -37 0 -16 -16 -32 -56 -56 -51 -30 -61 -33
-111 -28 -102 11 -135 74 -128 245 4 114 10 166 20 182 3 6 1 10 -5 10 -6 0
-9 8 -6 18 3 9 0 37 -8 62 -16 54 -7 102 26 137 21 23 28 25 83 19 33 -3 72
-8 87 -10z m-5207 -396 c13 -6 15 -9 5 -9 -8 0 -22 4 -30 9 -18 12 -2 12 25 0z
m82 -26 c-3 -3 -12 -4 -19 -1 -8 3 -5 6 6 6 11 1 17 -2 13 -5z m1104 -31 c13
-16 12 -17 -3 -4 -10 7 -18 15 -18 17 0 8 8 3 21 -13z m949 -90 c-18 -24 -88
-58 -98 -48 -2 2 5 6 16 9 10 4 37 20 58 36 48 36 51 37 24 3z m635 -123 c3
-5 2 -10 -4 -10 -5 0 -13 5 -16 10 -3 6 -2 10 4 10 5 0 13 -4 16 -10z m45 -30
c0 -5 -4 -10 -10 -10 -5 0 -10 5 -10 10 0 6 5 10 10 10 6 0 10 -4 10 -10z
m143 -16 c-5 -14 -3 -15 15 -5 27 14 29 0 4 -16 -15 -9 -21 -7 -30 7 -11 18
-9 20 15 29 1 1 0 -6 -4 -15z m637 -104 c0 -11 -7 -20 -15 -20 -15 0 -21 21
-8 33 12 13 23 7 23 -13z m-83 -52 c-3 -8 -6 -5 -6 6 -1 11 2 17 5 13 3 -3 4
-12 1 -19z m1683 -28 c0 -5 7 -13 16 -18 21 -12 23 -88 4 -142 -7 -18 -3 -97
4 -93 4 3 5 -4 1 -16 -3 -12 -2 -21 4 -21 20 0 31 -72 18 -120 -18 -63 -34
-89 -65 -101 -41 -16 -68 -3 -95 43 -26 46 -32 102 -16 145 11 29 14 134 4
173 -3 14 -7 47 -9 74 -4 42 -1 52 23 77 40 41 70 50 93 27 10 -10 18 -22 18
-28z m-1666 3 c-4 -15 -17 -38 -29 -51 l-23 -24 5 26 c3 14 9 26 14 26 5 0 15
11 21 25 15 33 20 32 12 -2z m-77 -245 c-3 -7 -5 -2 -5 12 0 14 2 19 5 13 2
-7 2 -19 0 -25z m24 -32 c-4 -12 -7 -33 -6 -48 0 -16 -3 -28 -8 -28 -5 0 -5
-5 1 -12 5 -7 8 -30 6 -50 -3 -23 1 -47 11 -61 11 -18 14 -47 12 -120 -1 -53
-6 -99 -9 -102 -4 -4 -4 -14 -1 -23 5 -12 2 -14 -12 -8 -18 6 -18 6 1 -15 19
-21 21 -55 3 -73 -5 -6 -9 -18 -9 -27 0 -10 -5 -19 -11 -21 -7 -2 -8 -17 -4
-40 5 -24 11 -35 20 -32 7 3 16 1 19 -4 3 -6 -1 -13 -9 -16 -12 -4 -14 -10 -5
-25 6 -12 6 -22 1 -26 -14 -8 -7 -55 10 -65 11 -7 10 -10 -5 -16 -14 -5 -15
-9 -4 -15 11 -7 10 -11 -2 -19 -12 -8 -12 -10 -1 -10 11 0 10 -5 -3 -25 -9
-13 -16 -33 -16 -44 0 -11 -5 -23 -10 -26 -8 -5 -7 -12 2 -22 7 -9 12 -19 10
-22 -2 -3 5 -8 15 -12 17 -7 17 -8 -2 -9 l-20 -1 20 -9 c11 -5 14 -9 7 -9 -7
-1 -10 -6 -6 -12 3 -6 2 -14 -4 -18 -6 -3 -12 -31 -14 -62 -3 -30 -8 -61 -13
-69 -5 -8 -2 -17 8 -25 10 -7 17 -19 17 -28 0 -8 6 -18 13 -20 8 -4 9 -8 1
-14 -10 -7 -19 -27 -23 -45 -1 -5 -10 -24 -21 -43 -19 -34 -12 -46 16 -27 14
9 94 122 94 133 0 4 32 57 71 119 39 61 77 132 86 158 9 26 24 71 35 101 60
172 73 345 36 493 -17 70 -19 91 -9 101 18 17 53 -27 81 -100 28 -73 39 -302
21 -436 -15 -115 -63 -302 -102 -402 -17 -44 -53 -141 -79 -216 -26 -75 -55
-150 -64 -168 -18 -33 -126 -287 -232 -540 -35 -85 -80 -206 -100 -270 -20
-64 -67 -213 -104 -331 -113 -355 -226 -738 -310 -1050 -55 -206 -78 -271
-103 -298 l-21 -22 22 -20 c12 -12 22 -28 22 -36 0 -25 30 -74 45 -74 8 0 15
7 15 15 0 18 33 20 48 2 7 -8 6 -18 -4 -32 -26 -36 -50 -160 -33 -171 5 -3 12
3 15 13 3 10 9 25 12 33 3 8 6 24 7 35 1 11 5 38 9 60 7 36 9 38 17 17 5 -13
4 -33 -1 -48 -15 -38 -14 -39 40 -36 83 6 205 -55 132 -66 -28 -4 -28 -18 -1
-32 16 -9 24 -8 38 4 10 9 33 19 52 22 19 4 37 11 40 16 3 5 48 3 105 -4 l99
-13 -32 -33 c-18 -19 -33 -37 -33 -40 0 -4 -31 -38 -70 -76 -38 -38 -70 -76
-70 -83 0 -15 -52 -96 -94 -148 -33 -42 -42 -73 -19 -71 33 2 24 -31 -24 -84
l-48 -53 37 7 c22 4 39 2 43 -4 4 -6 24 -22 45 -35 31 -19 39 -32 45 -64 7
-41 30 -76 92 -136 17 -17 33 -42 36 -55 3 -16 5 -11 6 17 0 23 -4 45 -10 48
-6 4 5 21 26 42 27 26 36 42 32 59 -2 14 2 25 9 28 8 3 14 12 14 21 0 12 -4
13 -19 6 -27 -15 -32 -3 -14 34 12 25 24 35 49 40 19 3 34 10 34 14 0 5 7 12
16 15 22 9 51 -19 59 -56 4 -16 14 -32 22 -35 8 -3 19 -17 24 -31 8 -20 5 -28
-15 -47 -14 -13 -22 -26 -18 -30 4 -3 -9 -20 -28 -36 -28 -25 -40 -29 -66 -24
-18 3 -35 1 -38 -4 -9 -14 36 -43 48 -31 16 16 36 11 36 -8 0 -10 12 -27 28
-39 27 -20 27 -21 26 -128 -1 -128 -4 -132 -115 -165 -41 -13 -74 -29 -82 -40
-8 -14 -23 -20 -46 -20 -32 0 -33 1 -27 30 3 17 2 39 -3 48 -12 26 -42 114
-45 137 -3 24 -28 65 -38 65 -14 0 -9 -67 5 -79 8 -6 22 -38 32 -71 15 -49 16
-67 7 -96 -6 -20 -8 -42 -5 -50 7 -19 -15 -44 -38 -44 -22 0 -99 -48 -99 -62
0 -4 -11 -14 -25 -20 -32 -14 -32 -28 -1 -28 32 0 43 -39 17 -60 -10 -8 -22
-25 -26 -38 -8 -29 -36 -43 -90 -46 -33 -2 -41 0 -31 8 13 11 29 46 22 46 -3
0 -12 3 -20 6 -12 5 -16 1 -14 -16 3 -20 -4 -25 -49 -35 -48 -11 -54 -10 -80
11 -15 12 -32 20 -36 17 -4 -3 -16 -2 -25 2 -23 10 -69 16 -56 7 6 -4 13 -14
17 -24 3 -9 19 -19 36 -23 37 -8 47 -20 55 -66 6 -36 37 -75 49 -62 4 3 7 -1
7 -10 0 -11 8 -15 25 -14 19 1 31 -6 43 -26 16 -27 16 -29 -2 -42 -11 -8 -32
-26 -48 -40 -36 -32 -42 -31 -70 5 -13 17 -35 45 -50 63 -29 36 -88 145 -88
163 0 6 -9 19 -20 29 -24 22 -23 61 1 59 14 -1 12 7 -10 42 -14 24 -30 44 -34
44 -5 0 0 -13 9 -30 16 -26 16 -31 2 -47 -14 -17 -27 -56 -31 -95 -1 -9 -5
-14 -9 -12 -4 3 -8 -3 -8 -14 0 -15 -5 -18 -23 -15 -27 5 -57 -19 -57 -47 0
-37 -12 -50 -45 -50 -44 0 -82 15 -93 37 -14 26 -3 71 19 78 10 4 19 13 19 22
0 11 -3 13 -12 5 -7 -6 -29 -13 -50 -17 -31 -6 -38 -4 -51 17 -8 12 -17 47
-21 77 -3 33 -13 62 -25 75 -10 12 -22 40 -26 64 -6 37 -10 42 -33 43 -15 0
-58 15 -96 33 -59 28 -73 32 -97 22 -25 -9 -32 -7 -57 17 -18 18 -42 29 -65
30 -42 4 -80 34 -98 80 -7 18 -19 40 -27 50 -8 9 -12 20 -9 24 4 3 3 11 -2 17
-13 15 -61 104 -61 111 0 3 15 -5 33 -19 37 -29 67 -34 67 -12 0 8 3 21 6 30
5 12 -1 16 -25 16 -19 0 -42 11 -64 30 -19 16 -37 30 -40 30 -2 0 -8 -43 -12
-95 -4 -52 -13 -123 -21 -157 -7 -35 -18 -135 -24 -223 -14 -189 -16 -205 -33
-205 -18 0 -47 138 -53 254 -3 50 -14 136 -25 191 -27 140 -50 397 -37 412 8
10 13 9 25 -2 8 -8 19 -15 24 -15 5 0 9 -7 9 -15 0 -8 7 -15 16 -15 9 0 18 -9
21 -20 3 -11 9 -17 14 -15 4 3 16 -6 25 -20 9 -14 20 -25 24 -25 11 0 23 50
21 82 -2 18 4 31 18 40 12 7 21 20 21 29 0 9 11 20 24 23 27 7 39 30 31 57 -9
26 -17 23 -40 -14 -17 -27 -27 -32 -60 -33 -60 0 -144 -15 -151 -25 -9 -15
-23 -10 -34 10 -5 11 -15 86 -20 168 -6 81 -18 207 -26 278 -14 118 -20 192
-39 445 -4 47 -9 92 -12 100 -3 8 -9 274 -12 590 l-7 575 -36 80 c-51 112 -94
248 -107 336 -5 41 -15 202 -21 359 -6 157 -15 337 -21 399 -10 127 -3 282 16
307 9 13 16 14 32 5 50 -26 183 -212 218 -304 10 -27 26 -59 36 -72 10 -12 55
-94 100 -181 73 -144 122 -221 175 -279 11 -11 32 -38 48 -60 16 -22 41 -52
55 -66 14 -15 41 -45 59 -68 30 -37 62 -54 62 -33 0 5 -24 33 -52 64 -100 105
-117 125 -137 162 -12 20 -21 45 -21 56 0 11 -4 20 -8 20 -9 0 -82 106 -82
120 0 6 -3 10 -8 10 -4 0 -18 20 -32 45 -14 25 -27 45 -30 45 -7 0 -26 37 -95
185 -31 66 -59 127 -63 135 -5 8 -6 23 -4 33 3 14 15 17 69 17 66 0 103 -16
103 -45 0 -6 13 -24 30 -40 16 -16 28 -31 25 -33 -6 -6 24 -62 33 -62 4 0 13
-14 19 -31 10 -26 15 -30 27 -20 10 8 16 9 21 1 3 -5 19 -10 36 -10 19 0 29
-5 29 -15 0 -8 7 -15 15 -15 8 0 15 -4 15 -10 0 -5 7 -10 15 -10 9 0 18 -13
22 -31 4 -20 10 -28 19 -25 8 3 14 -1 14 -9 0 -8 7 -15 15 -15 9 0 18 -7 21
-15 4 -9 14 -14 23 -13 11 2 15 -3 13 -17 -2 -18 -1 -18 10 -4 9 10 21 13 38
8 41 -12 46 -10 58 16 23 50 15 81 -28 115 -22 17 -44 29 -50 25 -19 -11 -79
13 -126 51 -25 21 -76 77 -112 124 -37 47 -69 87 -73 90 -3 3 -10 15 -13 28
-10 29 6 48 52 63 39 12 136 55 162 70 8 5 34 18 56 29 23 11 49 31 58 45 13
20 25 25 57 25 37 0 40 2 28 16 -11 13 -7 21 33 57 58 54 164 128 171 121 3
-4 20 1 38 10 18 9 38 16 45 16 7 0 17 7 22 16 5 8 16 16 25 18 9 1 20 5 23 9
4 4 13 2 21 -4 10 -9 13 -8 13 0 0 8 8 10 21 6 15 -5 19 -4 14 4 -4 7 17 22
59 41 68 31 186 114 186 131 0 5 5 9 11 9 11 0 79 55 80 64 0 3 36 41 79 85
44 43 80 83 80 88 0 5 11 16 25 23 13 7 23 17 22 23 -1 5 7 11 18 13 11 1 27
13 35 26 8 13 27 35 42 50 16 14 28 33 28 42 0 9 7 19 15 22 8 4 15 12 15 18
0 12 20 40 68 92 12 14 22 30 22 36 0 6 11 26 25 44 14 18 25 35 25 38 0 20
84 176 94 176 15 0 46 58 46 87 0 14 2 15 9 4 5 -8 6 -24 2 -35z m-521 -20 c0
-3 -4 -8 -10 -11 -5 -3 -10 -1 -10 4 0 6 5 11 10 11 6 0 10 -2 10 -4z m-100
-237 c0 -5 -5 -7 -11 -3 -8 4 -9 0 -4 -15 7 -23 5 -24 -19 -15 -19 7 -21 30
-3 37 21 9 37 7 37 -4z m-46 -35 c22 -9 10 -23 -14 -17 -11 3 -17 9 -14 14 6
11 8 11 28 3z m-2238 -111 c4 -10 9 -25 10 -33 1 -8 5 -23 9 -32 10 -24 0 -23
-25 4 -11 12 -20 34 -20 50 0 31 14 37 26 11z m170 -25 c6 -13 9 -17 7 -10 -3
17 17 15 39 -5 22 -20 26 -62 4 -44 -10 8 -16 9 -21 1 -7 -11 -44 4 -57 24
-13 18 -9 56 5 56 7 0 18 -10 23 -22z m4476 -78 c31 -59 32 -88 9 -205 -6 -27
-19 -95 -29 -150 -9 -55 -21 -106 -25 -112 -4 -7 -10 -54 -13 -105 -3 -51 -7
-94 -9 -96 -1 -1 -28 7 -59 18 l-56 21 -1 67 c-2 65 -4 87 -8 107 -2 6 -2 27
-1 48 1 20 -2 37 -7 37 -4 0 -9 66 -11 147 -2 118 1 151 13 170 9 12 12 23 8
23 -4 0 8 11 26 25 19 13 43 34 53 45 14 14 29 20 50 18 25 -2 35 -12 60 -58z
m-4242 -6 c0 -8 -5 -12 -10 -9 -6 4 -8 11 -5 16 9 14 15 11 15 -7z m-155 -119
c0 -28 -11 -28 -45 3 -20 18 -22 24 -11 31 22 14 56 -6 56 -34z m1315 -25 c0
-5 -4 -10 -10 -10 -5 0 -10 5 -10 10 0 6 5 10 10 10 6 0 10 -4 10 -10z m246
-15 c-8 -8 -18 -15 -22 -15 -3 0 -1 7 6 15 7 8 17 15 22 15 5 0 3 -7 -6 -15z
m-3411 -25 c19 -37 19 -55 0 -84 -30 -45 -111 -16 -98 35 6 25 56 79 73 79 5
0 16 -13 25 -30z m-65 -212 c0 20 25 14 46 -11 16 -18 18 -29 11 -50 -5 -16
-13 -24 -20 -20 -7 4 -8 0 -4 -11 4 -10 3 -15 -3 -11 -6 3 -10 1 -10 -4 0 -6
-5 -11 -11 -11 -5 0 -7 5 -3 12 5 8 2 9 -9 5 -9 -3 -16 -3 -15 1 1 4 -4 20
-11 37 -8 20 -9 31 -2 33 6 2 11 13 11 25 0 18 2 19 10 7 6 -10 10 -11 10 -2z
m4580 -192 c0 -3 -4 -8 -10 -11 -5 -3 -10 -1 -10 4 0 6 5 11 10 11 6 0 10 -2
10 -4z m-1744 -33 c-10 -10 -19 5 -10 18 6 11 8 11 12 0 2 -7 1 -15 -2 -18z
m-686 -59 c0 -2 -9 -4 -20 -4 -11 0 -20 4 -20 9 0 5 9 7 20 4 11 -3 20 -7 20
-9z m267 -6 c-3 -8 -6 -5 -6 6 -1 11 2 17 5 13 3 -3 4 -12 1 -19z m2170 -50
c-3 -8 -6 -5 -6 6 -1 11 2 17 5 13 3 -3 4 -12 1 -19z m-2207 -13 c14 9 13 -8
-2 -23 -19 -19 -33 -14 -33 12 0 18 3 22 12 14 7 -5 17 -7 23 -3z m197 -12 c3
-7 -4 -9 -16 -6 -12 3 -18 9 -15 15 7 11 26 6 31 -9z m1383 -2899 c0 -8 -4
-14 -10 -14 -5 0 -10 9 -10 21 0 11 5 17 10 14 6 -3 10 -13 10 -21z m320 -639
c0 -5 -20 -39 -36 -64 -2 -1 -8 0 -13 4 -14 8 18 65 36 65 7 0 13 -2 13 -5z
m103 -352 c45 -28 47 -43 8 -43 -31 0 -71 38 -71 67 0 15 0 15 63 -24z"/>
<path d="M7470 9780 c0 -5 5 -10 11 -10 5 0 7 5 4 10 -3 6 -8 10 -11 10 -2 0
-4 -4 -4 -10z"/>
<path d="M7620 9720 c0 -5 5 -10 11 -10 5 0 7 5 4 10 -3 6 -8 10 -11 10 -2 0
-4 -4 -4 -10z"/>
<path d="M7895 9660 c-3 -5 1 -10 9 -10 9 0 16 5 16 10 0 6 -4 10 -9 10 -6 0
-13 -4 -16 -10z"/>
<path d="M3862 9715 c-7 -8 -9 -15 -4 -15 5 0 15 7 22 15 16 19 -1 19 -18 0z"/>
<path d="M3837 9683 c-4 -3 -7 -11 -7 -17 0 -6 5 -5 12 2 6 6 9 14 7 17 -3 3
-9 2 -12 -2z"/>
<path d="M3475 9299 c-34 -17 -35 -19 -11 -14 16 3 39 13 50 21 29 20 9 16
-39 -7z"/>
<path d="M2900 9080 c-8 -5 -10 -10 -5 -10 6 0 17 5 25 10 8 5 11 10 5 10 -5
0 -17 -5 -25 -10z"/>
<path d="M2720 9070 c8 -5 28 -10 44 -10 39 0 30 6 -19 13 -27 4 -35 3 -25 -3z"/>
<path d="M5075 8954 c-16 -8 -34 -20 -40 -26 -7 -7 -6 -9 1 -5 7 4 14 0 18 -8
3 -8 16 -15 30 -15 20 0 24 6 28 35 5 40 4 40 -37 19z"/>
<path d="M5010 8816 c0 -9 -8 -16 -20 -16 -11 0 -20 -4 -20 -10 0 -5 -10 -20
-22 -32 -11 -11 -21 -33 -22 -49 -1 -15 -5 -25 -9 -22 -4 2 -5 -7 -1 -21 7
-29 0 -33 -22 -11 -21 21 -34 19 -34 -5 0 -19 -13 -25 -50 -21 -12 2 -12 0 -1
-7 9 -6 10 -12 3 -16 -6 -4 -9 -13 -6 -21 8 -19 -25 -32 -36 -15 -5 7 -10 8
-14 2 -3 -5 1 -15 9 -22 12 -10 18 -10 30 0 13 11 14 10 9 -4 -3 -9 -1 -16 4
-16 6 0 12 -10 15 -22 4 -23 4 -23 14 2 11 25 11 25 26 -20 4 -9 6 -6 6 8 1
12 6 22 12 22 5 0 7 -4 4 -10 -3 -5 5 -22 19 -37 15 -15 26 -35 26 -43 1 -12
2 -12 10 2 12 20 3 48 -17 48 -8 0 -11 5 -8 10 3 6 0 10 -7 10 -10 0 -10 2 -1
8 9 6 19 52 22 107 1 6 10 11 21 12 11 1 18 -2 15 -7 -3 -4 5 -6 17 -3 23 4
23 4 3 -14 -21 -19 -34 -60 -16 -49 6 4 19 -2 30 -13 18 -18 20 -18 35 -2 31
34 10 71 -22 39 -6 -6 -15 -9 -18 -5 -9 9 24 39 36 32 5 -3 10 -1 10 5 0 6 -7
13 -16 17 -13 5 -13 7 -2 14 11 8 11 11 -1 18 -7 5 -11 15 -9 22 3 8 -2 21
-10 29 -14 13 -14 15 1 18 15 3 23 28 18 56 -1 5 3 12 9 16 7 5 6 11 -5 20
-12 10 -15 10 -15 -4z m-23 -138 c-3 -8 -6 -5 -6 6 -1 11 2 17 5 13 3 -3 4
-12 1 -19z m-102 -28 c3 -5 1 -10 -4 -10 -6 0 -11 5 -11 10 0 6 2 10 4 10 3 0
8 -4 11 -10z m-12 -37 c-7 -3 -13 -16 -13 -29 0 -14 4 -23 9 -19 5 3 13 0 17
-6 4 -8 3 -9 -4 -5 -7 4 -12 2 -12 -4 0 -7 -6 -5 -15 4 -21 20 -19 64 3 68 20
5 32 -3 15 -9z m-43 -58 c0 -8 -2 -15 -4 -15 -2 0 -6 7 -10 15 -3 8 -1 15 4
15 6 0 10 -7 10 -15z"/>
<path d="M4635 8810 c-4 -6 3 -10 14 -10 25 0 27 6 6 13 -8 4 -17 2 -20 -3z"/>
<path d="M5250 8780 c0 -5 5 -10 10 -10 6 0 10 5 10 10 0 6 -4 10 -10 10 -5 0
-10 -4 -10 -10z"/>
<path d="M4650 8740 c0 -5 5 -10 10 -10 6 0 10 5 10 10 0 6 -4 10 -10 10 -5 0
-10 -4 -10 -10z"/>
<path d="M4740 8659 c0 -5 5 -7 10 -4 6 3 10 8 10 11 0 2 -4 4 -10 4 -5 0 -10
-5 -10 -11z"/>
<path d="M4680 8624 c0 -14 3 -14 15 -4 8 7 15 14 15 16 0 2 -7 4 -15 4 -8 0
-15 -7 -15 -16z"/>
<path d="M4760 8620 c0 -5 5 -10 10 -10 6 0 10 5 10 10 0 6 -4 10 -10 10 -5 0
-10 -4 -10 -10z"/>
<path d="M4081 8593 c8 -10 21 -24 29 -31 13 -10 12 -11 -5 -5 -24 8 -18 0 12
-16 20 -10 22 -9 16 5 -4 11 -3 15 5 10 6 -3 14 -1 18 6 4 7 4 10 0 6 -5 -4
-20 4 -34 18 -32 29 -63 34 -41 7z"/>
<path d="M4330 8606 c0 -2 7 -7 16 -10 8 -3 12 -2 9 4 -6 10 -25 14 -25 6z"/>
<path d="M4455 8570 c3 -5 8 -10 11 -10 2 0 4 5 4 10 0 6 -5 10 -11 10 -5 0
-7 -4 -4 -10z"/>
<path d="M4280 8556 c0 -2 7 -7 16 -10 8 -3 12 -2 9 4 -6 10 -25 14 -25 6z"/>
<path d="M5052 8440 c0 -19 2 -27 5 -17 2 9 2 25 0 35 -3 9 -5 1 -5 -18z"/>
<path d="M4855 8450 c3 -5 11 -10 16 -10 6 0 7 5 4 10 -3 6 -11 10 -16 10 -6
0 -7 -4 -4 -10z"/>
<path d="M4978 8453 c7 -3 16 -2 19 1 4 3 -2 6 -13 5 -11 0 -14 -3 -6 -6z"/>
<path d="M4085 8430 c-3 -6 1 -7 9 -4 18 7 21 14 7 14 -6 0 -13 -4 -16 -10z"/>
<path d="M4743 8433 c16 -3 31 -11 34 -19 7 -18 23 -18 23 0 0 17 -23 27 -58
25 l-27 -2 28 -4z"/>
<path d="M4830 8420 c0 -5 5 -10 10 -10 6 0 10 5 10 10 0 6 -4 10 -10 10 -5 0
-10 -4 -10 -10z"/>
<path d="M4895 8420 c3 -5 8 -10 11 -10 2 0 4 5 4 10 0 6 -5 10 -11 10 -5 0
-7 -4 -4 -10z"/>
<path d="M4828 8392 c-13 -5 -8 -11 23 -24 21 -9 39 -12 39 -7 0 5 -11 11 -25
15 -14 3 -22 10 -19 15 6 10 5 10 -18 1z"/>
<path d="M4268 8383 c6 -2 18 -2 25 0 6 3 1 5 -13 5 -14 0 -19 -2 -12 -5z"/>
<path d="M4262 8311 c-10 -6 -7 -10 11 -15 14 -3 33 -9 43 -13 12 -4 15 -3 10
5 -4 7 -2 12 3 12 6 0 11 -7 11 -16 0 -8 4 -13 9 -9 5 3 12 -3 15 -12 8 -25
66 -26 66 -1 0 21 -11 23 -29 6 -11 -10 -13 -10 -7 0 5 7 1 12 -11 12 -14 0
-15 2 -4 9 18 12 3 19 -37 17 -17 0 -32 2 -32 7 0 10 -32 9 -48 -2z"/>
<path d="M4930 8261 c0 -12 5 -21 10 -21 6 0 10 6 10 14 0 8 -4 18 -10 21 -5
3 -10 -3 -10 -14z"/>
<path d="M4710 8220 c-9 -6 -10 -10 -3 -10 6 0 15 5 18 10 8 12 4 12 -15 0z"/>
<path d="M4623 8165 c0 -8 4 -15 9 -15 4 0 8 7 8 15 0 8 -4 15 -8 15 -5 0 -9
-7 -9 -15z"/>
<path d="M4556 8137 c3 -10 9 -15 12 -12 3 3 0 11 -7 18 -10 9 -11 8 -5 -6z"/>
<path d="M3370 9349 c0 -5 5 -7 10 -4 6 3 10 8 10 11 0 2 -4 4 -10 4 -5 0 -10
-5 -10 -11z"/>
<path d="M2987 9309 c7 -7 15 -10 18 -7 3 3 -2 9 -12 12 -14 6 -15 5 -6 -5z"/>
<path d="M3160 9350 c0 -5 5 -10 10 -10 6 0 10 5 10 10 0 6 -4 10 -10 10 -5 0
-10 -4 -10 -10z"/>
<path d="M4910 9151 c0 -5 7 -14 15 -21 8 -7 15 -9 15 -5 0 4 6 2 14 -4 9 -7
17 -8 20 -3 3 6 -5 13 -19 16 -14 4 -25 11 -25 16 0 6 -4 10 -10 10 -5 0 -10
-4 -10 -9z"/>
<path d="M6239 8228 c-12 -38 7 -255 27 -303 36 -87 6 -260 -67 -378 -33 -53
-34 -57 -17 -57 20 0 78 50 102 88 66 106 80 292 37 483 -5 24 -12 60 -15 79
-7 39 -60 109 -67 88z"/>
<path d="M6065 7940 c10 -11 20 -20 23 -20 3 0 -3 9 -13 20 -10 11 -20 20 -23
20 -3 0 3 -9 13 -20z"/>
<path d="M6034 7544 c-17 -14 -17 -15 -1 -10 10 3 23 6 28 6 5 0 9 5 9 10 0
14 -13 12 -36 -6z"/>
<path d="M5696 7294 c-9 -22 3 -32 14 -14 12 19 12 30 1 30 -5 0 -12 -7 -15
-16z"/>
<path d="M3940 8220 c0 -6 7 -10 15 -10 8 0 15 2 15 4 0 2 -7 6 -15 10 -8 3
-15 1 -15 -4z"/>
<path d="M3670 7901 c0 -5 5 -13 10 -16 6 -3 10 -2 10 4 0 5 -4 13 -10 16 -5
3 -10 2 -10 -4z"/>
<path d="M3245 7880 c-3 -5 -1 -10 4 -10 6 0 11 5 11 10 0 6 -2 10 -4 10 -3 0
-8 -4 -11 -10z"/>
<path d="M5120 7819 c0 -5 5 -7 10 -4 6 3 10 8 10 11 0 2 -4 4 -10 4 -5 0 -10
-5 -10 -11z"/>
<path d="M5150 7760 c0 -6 7 -10 15 -10 8 0 15 2 15 4 0 2 -7 6 -15 10 -8 3
-15 1 -15 -4z"/>
<path d="M5040 7646 c0 -2 7 -9 15 -16 9 -7 15 -8 15 -2 0 5 -7 12 -15 16 -8
3 -15 4 -15 2z"/>
<path d="M3278 7255 c-3 -14 0 -26 8 -29 10 -4 14 3 14 19 0 33 -17 41 -22 10z"/>
<path d="M3320 7243 c0 -9 3 -13 7 -9 4 4 15 -8 26 -26 10 -18 16 -25 13 -15
-3 9 -1 17 4 17 6 0 10 -6 10 -12 0 -16 -15 -40 -24 -39 -3 1 -5 -2 -3 -6 1
-5 8 -7 15 -7 6 1 12 -3 12 -8 0 -6 7 -8 15 -5 18 7 30 -9 14 -19 -7 -4 -7 -9
-2 -13 17 -11 42 -71 32 -77 -5 -3 -9 1 -9 8 -1 7 -9 -3 -20 -22 -11 -19 -19
-31 -20 -26 0 5 -11 -1 -24 -13 -17 -16 -31 -21 -46 -16 -17 5 -21 4 -15 -6 5
-7 -2 -5 -16 4 -13 9 -33 17 -46 17 -12 0 -24 4 -28 9 -3 5 -19 8 -36 6 -17
-3 -40 0 -51 6 -18 10 -58 13 -110 10 -11 -1 -15 -6 -12 -16 5 -11 -1 -15 -20
-15 -16 0 -26 -6 -26 -15 0 -8 -7 -15 -16 -15 -8 0 -12 -5 -8 -11 4 -8 0 -9
-15 -4 -13 4 -21 2 -21 -5 0 -8 -6 -8 -20 0 -10 6 -23 10 -27 9 -30 -5 -53 3
-53 19 0 13 -2 14 -9 3 -5 -7 -21 -13 -37 -13 -15 0 -32 6 -38 13 -7 8 -20 19
-31 25 -11 6 -30 35 -42 65 -15 35 -22 46 -23 31 0 -54 61 -152 113 -178 50
-27 92 -76 93 -111 1 -23 -2 -30 -12 -26 -17 6 -18 -9 -2 -25 9 -9 9 -12 0
-12 -6 0 -9 -6 -6 -14 3 -8 1 -17 -5 -20 -6 -4 -8 -13 -5 -20 3 -8 1 -17 -5
-21 -14 -8 -14 -45 0 -45 6 0 9 7 5 15 -4 10 1 15 14 15 23 0 26 -10 8 -28 -6
-6 -8 -15 -4 -19 11 -11 48 37 42 54 -3 7 0 13 8 13 17 0 37 85 22 100 -7 7
-6 10 2 10 12 0 16 -13 12 -40 -1 -9 7 -5 19 10 11 14 24 30 29 35 5 6 7 16 4
23 -6 18 13 15 29 -5 8 -10 9 -14 2 -10 -6 4 -15 2 -19 -4 -8 -13 33 -52 46
-44 4 3 7 -3 6 -13 0 -9 5 -16 11 -15 7 2 16 -9 19 -25 4 -15 11 -32 16 -39 5
-7 9 -27 8 -45 -1 -18 -1 -40 -1 -48 3 -26 22 17 25 53 1 18 8 43 15 56 12 21
11 26 -6 40 -24 20 -47 71 -32 71 6 0 8 4 5 8 -2 4 -1 14 5 22 7 12 9 12 9 -3
0 -13 6 -16 25 -13 20 4 25 1 25 -17 0 -17 2 -19 9 -8 5 8 7 21 3 29 -3 10 -1
13 6 8 6 -3 14 -1 18 5 4 8 3 9 -4 5 -7 -4 -12 -3 -12 3 0 5 -9 9 -19 8 -12
-1 -17 -6 -13 -15 4 -12 1 -12 -19 -1 -13 7 -31 13 -39 14 -9 0 -15 9 -15 21
0 12 -9 31 -19 43 -20 22 -20 22 2 44 20 20 33 22 125 22 102 0 150 -12 161
-41 8 -21 -18 -64 -41 -70 -13 -4 -20 -10 -17 -15 11 -18 -8 -8 -28 14 -16 17
-18 18 -14 4 4 -13 2 -16 -7 -10 -6 4 -20 6 -29 5 -13 -2 -16 1 -12 12 3 9 4
16 1 16 -3 0 -8 -7 -11 -15 -3 -10 2 -18 14 -23 18 -7 18 -10 6 -33 -11 -21
-11 -26 0 -26 7 0 11 4 8 9 -3 4 0 8 6 8 6 0 9 4 5 9 -3 5 -1 13 5 16 6 4 10
3 9 -2 -3 -20 2 -27 11 -13 7 11 10 11 10 2 0 -7 5 -10 10 -7 6 3 10 1 10 -4
0 -6 -5 -11 -10 -11 -7 0 -7 -6 -2 -17 5 -10 7 -24 5 -30 -3 -7 0 -13 5 -13 5
0 9 10 8 23 -2 37 84 129 148 158 69 30 107 85 111 159 2 31 -41 127 -71 159
-13 14 -24 29 -24 34 0 4 -10 1 -21 -7 -17 -11 -25 -12 -40 -3 -11 7 -19 17
-19 24 0 7 -7 13 -15 13 -8 0 -15 -7 -15 -17z"/>
<path d="M3175 7150 c-3 -5 -1 -10 4 -10 6 0 11 5 11 10 0 6 -2 10 -4 10 -3 0
-8 -4 -11 -10z"/>
<path d="M4916 7101 c-4 -7 -5 -15 -2 -18 9 -9 19 4 14 18 -4 11 -6 11 -12 0z"/>
<path d="M3397 7071 c3 -12 10 -21 15 -21 13 0 6 32 -9 37 -7 3 -9 -3 -6 -16z"/>
<path d="M4982 6989 c-7 -11 -11 -23 -9 -25 7 -7 29 24 25 36 -2 6 -9 1 -16
-11z"/>
<path d="M5160 6878 c0 -6 3 -8 6 -5 4 3 15 2 25 -4 14 -7 17 -6 14 4 -7 16
-45 20 -45 5z"/>
<path d="M5170 6759 c0 -11 5 -17 10 -14 6 3 10 13 10 21 0 8 -4 14 -10 14 -5
0 -10 -9 -10 -21z"/>
<path d="M3080 6749 c0 -5 5 -7 10 -4 6 3 10 8 10 11 0 2 -4 4 -10 4 -5 0 -10
-5 -10 -11z"/>
<path d="M3116 6737 c3 -10 9 -15 12 -12 3 3 0 11 -7 18 -10 9 -11 8 -5 -6z"/>
<path d="M2710 6580 c-7 -13 -7 -26 -2 -36 8 -15 10 -15 16 1 3 9 4 21 0 26
-3 5 0 9 5 9 6 0 11 5 11 10 0 17 -19 11 -30 -10z"/>
<path d="M2786 6563 c-6 -14 -5 -15 5 -6 7 7 10 15 7 18 -3 3 -9 -2 -12 -12z"/>
<path d="M4923 6305 c-3 -9 -3 -18 0 -21 9 -9 27 6 27 22 0 19 -19 18 -27 -1z"/>
<path d="M4796 6171 c-4 -7 -5 -15 -2 -18 9 -9 19 4 14 18 -4 11 -6 11 -12 0z"/>
<path d="M3670 6109 c0 -5 5 -7 10 -4 6 3 10 8 10 11 0 2 -4 4 -10 4 -5 0 -10
-5 -10 -11z"/>
<path d="M4675 6080 c-7 -12 12 -40 26 -40 5 0 9 11 9 25 0 25 -23 35 -35 15z"/>
<path d="M4547 6073 c-2 -5 2 -19 9 -33 l14 -25 0 27 c0 26 -15 46 -23 31z"/>
<path d="M4490 6035 c0 -8 2 -15 4 -15 2 0 6 7 10 15 3 8 1 15 -4 15 -6 0 -10
-7 -10 -15z"/>
<path d="M3375 6030 c-3 -5 -1 -10 4 -10 6 0 11 5 11 10 0 6 -2 10 -4 10 -3 0
-8 -4 -11 -10z"/>
<path d="M4425 6019 c-11 -4 -15 -8 -10 -8 6 -1 3 -6 -5 -11 -13 -8 -13 -10 1
-10 16 0 46 27 38 34 -2 2 -13 0 -24 -5z"/>
<path d="M4518 6006 c-10 -7 -18 -18 -18 -25 0 -16 30 -14 36 4 10 24 0 35
-18 21z"/>
<path d="M4442 5978 c-17 -13 -30 -28 -27 -35 2 -6 -1 -14 -8 -17 -8 -3 -8 -5
2 -5 7 -1 24 10 37 24 13 14 20 25 17 25 -4 0 2 7 13 15 31 23 2 17 -34 -7z"/>
<path d="M4125 5940 c3 -5 8 -10 11 -10 2 0 4 5 4 10 0 6 -5 10 -11 10 -5 0
-7 -4 -4 -10z"/>
<path d="M3965 5920 c-3 -5 -2 -10 4 -10 5 0 13 5 16 10 3 6 2 10 -4 10 -5 0
-13 -4 -16 -10z"/>
<path d="M4090 5919 c0 -5 5 -7 10 -4 6 3 10 8 10 11 0 2 -4 4 -10 4 -5 0 -10
-5 -10 -11z"/>
<path d="M4140 5890 c0 -5 5 -10 10 -10 6 0 10 5 10 10 0 6 -4 10 -10 10 -5 0
-10 -4 -10 -10z"/>
<path d="M4145 5860 c-3 -5 -1 -10 4 -10 6 0 11 5 11 10 0 6 -2 10 -4 10 -3 0
-8 -4 -11 -10z"/>
<path d="M4030 5830 c0 -5 5 -10 10 -10 6 0 10 5 10 10 0 6 -4 10 -10 10 -5 0
-10 -4 -10 -10z"/>
<path d="M4135 5830 c-4 -7 0 -19 9 -28 15 -16 16 -15 13 5 -4 29 -13 38 -22
23z"/>
<path d="M4016 5795 c-3 -10 1 -15 13 -15 10 0 21 7 25 15 3 10 -1 15 -13 15
-10 0 -21 -7 -25 -15z"/>
<path d="M4170 5800 c0 -5 5 -10 10 -10 6 0 10 5 10 10 0 6 -4 10 -10 10 -5 0
-10 -4 -10 -10z"/>
<path d="M4060 5740 c-24 -19 -24 -20 -4 -20 13 0 24 8 27 20 3 11 4 20 4 20
-1 0 -13 -9 -27 -20z"/>
<path d="M4010 5669 c0 -5 5 -7 10 -4 6 3 10 8 10 11 0 2 -4 4 -10 4 -5 0 -10
-5 -10 -11z"/>
<path d="M3710 5460 c0 -5 5 -10 10 -10 6 0 10 5 10 10 0 6 -4 10 -10 10 -5 0
-10 -4 -10 -10z"/>
<path d="M3750 5460 c0 -5 5 -10 10 -10 6 0 10 5 10 10 0 6 -4 10 -10 10 -5 0
-10 -4 -10 -10z"/>
<path d="M2610 7850 c-12 -7 -12 -10 3 -16 21 -8 29 -3 19 13 -5 8 -13 9 -22
3z"/>
<path d="M2543 7781 c1 -21 7 -31 18 -31 21 0 20 26 -2 46 -17 16 -18 15 -16
-15z"/>
<path d="M2636 7788 c-4 -9 -5 -21 -2 -27 3 -5 0 -12 -6 -14 -10 -4 -10 -6 0
-6 16 -1 25 22 19 46 -4 17 -4 17 -11 1z"/>
<path d="M5640 5184 c0 -8 5 -12 10 -9 6 3 10 10 10 16 0 5 -4 9 -10 9 -5 0
-10 -7 -10 -16z"/>
<path d="M3513 4333 c-76 -83 -94 -178 -55 -293 l19 -54 7 44 c4 25 13 54 20
65 7 11 16 32 19 46 8 32 72 99 96 99 21 0 28 -14 71 -135 18 -49 46 -111 62
-137 37 -59 119 -135 197 -182 33 -20 69 -51 80 -69 11 -17 34 -49 49 -69 48
-61 119 -284 137 -423 8 -66 15 -144 15 -174 0 -36 5 -60 16 -73 16 -16 16
-22 0 -78 -10 -35 -14 -73 -11 -93 14 -72 -12 -183 -74 -315 -129 -277 -136
-295 -193 -517 -39 -155 -57 -310 -34 -310 5 0 13 -11 18 -24 7 -21 13 -23 46
-18 20 4 42 14 47 24 6 9 20 27 32 40 l22 23 -25 29 c-30 36 -30 39 2 39 14 0
35 8 47 19 12 11 34 27 49 36 15 10 30 28 34 42 7 30 20 32 27 5 6 -23 41 -27
82 -8 34 15 32 25 -8 32 -42 8 -68 36 -95 105 -32 78 -29 131 8 171 44 47 69
84 68 100 -3 44 4 61 26 70 32 12 42 45 22 75 -20 30 -21 65 -2 65 8 0 25 -14
38 -31 13 -16 37 -47 54 -67 18 -21 34 -48 35 -62 3 -21 9 -25 34 -23 54 3
100 15 117 30 14 13 19 13 40 -1 23 -15 26 -14 81 39 40 39 57 63 57 80 0 35
26 42 55 15 21 -20 25 -21 31 -7 3 9 -2 30 -12 46 -18 30 -18 31 5 55 24 25
24 25 12 158 -18 215 -16 272 14 317 14 21 29 56 32 77 3 21 16 58 29 82 13
23 24 49 24 57 0 16 -105 157 -245 330 -107 132 -153 195 -209 283 -26 39 -54
72 -62 72 -10 0 -13 7 -8 24 3 13 1 27 -5 30 -6 4 -57 -18 -113 -48 -105 -55
-174 -76 -252 -76 -31 0 -46 5 -50 16 -8 22 -10 20 29 59 20 19 34 39 31 43
-2 4 -78 51 -168 105 -173 103 -254 165 -308 235 -40 52 -62 53 -107 5z"/>
<path d="M4270 4220 c0 -5 5 -10 11 -10 5 0 7 5 4 10 -3 6 -8 10 -11 10 -2 0
-4 -4 -4 -10z"/>
<path d="M4279 4192 c-31 -24 -34 -30 -22 -41 8 -7 12 -22 10 -32 -3 -11 -1
-19 4 -19 7 0 70 26 119 50 22 11 25 47 3 53 -60 17 -79 15 -114 -11z"/>
<path d="M4176 4066 c21 -15 30 -14 19 3 -3 6 -14 11 -23 11 -13 0 -13 -2 4
-14z"/>
<path d="M4904 2397 c-3 -9 -13 -17 -21 -17 -12 0 -14 -7 -9 -27 20 -88 19
-142 -6 -220 -14 -43 -31 -98 -38 -123 -8 -25 -17 -49 -21 -55 -4 -5 -10 -31
-14 -56 -8 -51 7 -73 25 -39 6 11 17 20 26 20 13 0 13 3 0 23 -14 20 -13 27
13 77 15 30 40 77 56 104 36 63 40 102 15 173 -23 66 -25 86 -8 113 10 15 10
22 1 31 -10 10 -14 9 -19 -4z"/>
<path d="M5185 2180 c-7 -12 2 -30 16 -30 5 0 9 9 9 20 0 21 -15 27 -25 10z"/>
<path d="M4950 2130 c0 -5 5 -10 11 -10 5 0 7 5 4 10 -3 6 -8 10 -11 10 -2 0
-4 -4 -4 -10z"/>
<path d="M4303 1746 c-3 -4 6 -20 21 -34 25 -26 28 -26 54 -12 15 9 28 23 30
32 2 13 -7 17 -48 19 -29 2 -54 0 -57 -5z"/>
<path d="M4732 1733 c1 -4 -1 -33 -6 -63 -4 -31 -4 -63 -1 -73 6 -14 12 -11
40 16 31 30 33 37 28 75 -3 25 -10 41 -17 39 -6 -2 -19 0 -29 5 -9 5 -16 5
-15 1z"/>
<path d="M4512 1694 c1 -9 9 -19 16 -22 9 -3 13 2 10 14 -1 9 -9 19 -16 22 -9
3 -13 -2 -10 -14z"/>
<path d="M4105 1671 c-3 -5 -1 -12 5 -16 5 -3 10 1 10 9 0 18 -6 21 -15 7z"/>
<path d="M4410 1650 c0 -5 5 -10 11 -10 5 0 7 5 4 10 -3 6 -8 10 -11 10 -2 0
-4 -4 -4 -10z"/>
<path d="M5224 1629 c-19 -21 -19 -21 9 -8 15 7 27 16 27 21 0 14 -16 9 -36
-13z"/>
<path d="M4520 1577 c0 -17 -9 -25 -40 -35 -22 -6 -47 -12 -55 -12 -8 0 -16
-3 -16 -7 -1 -5 -3 -18 -4 -29 -1 -12 -5 -27 -9 -33 -4 -7 -3 -18 3 -25 7 -8
11 -18 10 -22 -2 -16 13 -54 22 -54 5 0 9 -7 9 -16 0 -11 8 -15 29 -12 16 1
35 -3 43 -9 11 -9 25 -8 62 5 38 14 49 23 53 45 7 33 12 33 39 4 69 -74 131
-183 76 -133 -18 15 -21 14 -56 -19 -21 -20 -48 -35 -61 -35 -20 0 -24 -5 -23
-27 1 -16 -2 -39 -6 -53 -4 -16 -2 -32 7 -44 13 -18 16 -18 37 -3 17 12 28 13
42 6 14 -7 23 -7 33 1 8 6 27 10 42 9 15 -2 42 5 60 14 42 22 68 21 101 -2 35
-26 74 -18 96 20 13 22 24 29 43 27 21 -2 30 4 46 34 19 36 19 36 -1 58 -35
37 -131 27 -167 -17 -5 -7 -31 -15 -57 -17 l-48 -5 -45 63 c-25 35 -45 66 -45
69 0 3 -20 26 -44 51 -34 36 -45 55 -50 92 -6 47 -34 84 -63 84 -7 0 -13 9
-13 19 0 17 -18 31 -41 31 -5 0 -9 -10 -9 -23z m-40 -187 c0 -5 -5 -10 -11
-10 -5 0 -7 5 -4 10 3 6 8 10 11 10 2 0 4 -4 4 -10z m231 -262 c18 -33 -16 -9
-36 25 l-18 32 22 -20 c13 -11 27 -28 32 -37z"/>
<path d="M5163 1553 c-35 -19 -63 -39 -63 -44 0 -13 47 -30 65 -23 22 9 47
-15 40 -37 -9 -27 4 -24 15 4 6 12 16 30 22 39 10 14 10 22 1 37 -10 15 -9 22
2 31 8 7 15 16 15 21 0 17 -36 7 -97 -28z"/>
<path d="M5060 1545 c7 -9 15 -13 17 -11 7 7 -7 26 -19 26 -6 0 -6 -6 2 -15z"/>
<path d="M4752 1539 c2 -6 8 -10 13 -10 5 0 11 4 13 10 2 6 -4 11 -13 11 -9 0
-15 -5 -13 -11z"/>
<path d="M4897 1346 c-7 -17 -10 -56 -4 -56 1 0 17 -4 35 -9 31 -9 33 -9 26
12 -4 12 -7 31 -6 42 1 16 -1 17 -8 5 -8 -13 -11 -12 -23 4 -13 17 -14 18 -20
2z"/>
<path d="M3890 1340 c-13 -8 -13 -10 2 -10 9 0 20 5 23 10 8 13 -5 13 -25 0z"/>
<path d="M4992 1320 c0 -14 2 -19 5 -12 2 6 2 18 0 25 -3 6 -5 1 -5 -13z"/>
<path d="M5664 1295 c-4 -8 -10 -12 -16 -9 -5 3 -17 -1 -26 -9 -9 -9 -31 -21
-47 -27 l-30 -12 27 -10 c20 -7 33 -5 50 6 22 15 65 76 53 76 -3 0 -8 -7 -11
-15z"/>
<path d="M4068 1243 c-14 -13 -20 -14 -32 -3 -13 10 -16 10 -16 -3 0 -8 7 -18
16 -21 9 -3 14 -15 12 -28 -2 -11 3 -23 10 -25 7 -3 12 4 12 16 0 12 7 24 15
27 15 6 22 54 7 54 -4 0 -15 -7 -24 -17z"/>
<path d="M5667 1093 c-4 -3 -7 -11 -7 -17 0 -6 5 -5 12 2 6 6 9 14 7 17 -3 3
-9 2 -12 -2z"/>
<path d="M4160 1050 c5 -19 14 -38 20 -44 7 -7 6 2 -1 24 -16 46 -31 63 -19
20z"/>
<path d="M4030 1046 c0 -2 7 -9 15 -16 13 -11 14 -10 9 4 -5 14 -24 23 -24 12z"/>
<path d="M5161 904 c0 -11 3 -14 6 -6 3 7 2 16 -1 19 -3 4 -6 -2 -5 -13z"/>
<path d="M5249 904 c-13 -7 -32 -13 -41 -14 -13 0 -18 -8 -18 -32 0 -33 47
-144 58 -134 3 4 0 12 -6 18 -15 15 -16 42 -2 33 6 -4 10 5 10 19 0 25 -9 31
-39 26 -10 -1 -12 5 -7 22 3 13 6 27 6 31 0 5 27 6 61 4 41 -4 72 0 96 9 19 9
34 17 32 18 -2 2 -31 6 -65 9 -41 3 -68 0 -85 -9z"/>
<path d="M5147 853 c-4 -3 -7 -23 -7 -44 0 -29 -7 -45 -27 -65 -16 -14 -21
-23 -13 -20 8 3 23 9 33 12 17 6 22 21 18 61 -1 13 3 32 9 43 10 19 1 28 -13
13z"/>
<path d="M4743 796 c-26 -12 -31 -46 -8 -46 17 0 19 -12 5 -26 -14 -14 13 -37
37 -32 12 2 18 13 18 30 1 14 7 33 14 42 12 14 8 20 -11 17 -4 0 -5 6 -2 14 7
18 -19 18 -53 1z"/>
<path d="M4632 767 c-12 -13 -22 -28 -22 -34 0 -17 32 -25 43 -11 6 9 7 6 4
-9 -7 -31 6 -36 31 -12 23 21 28 44 12 54 -5 3 -10 1 -10 -4 0 -6 -5 -11 -10
-11 -6 0 -8 11 -4 25 8 33 -14 34 -44 2z"/>
<path d="M5257 695 c-38 -27 -50 -49 -19 -38 25 9 85 63 70 63 -7 0 -30 -11
-51 -25z"/>
<path d="M5022 668 c5 -13 38 -20 38 -8 0 4 -7 11 -16 14 -22 9 -26 8 -22 -6z"/>
<path d="M4756 635 c4 -8 8 -15 10 -15 2 0 4 7 4 15 0 8 -4 15 -10 15 -5 0 -7
-7 -4 -15z"/>
</g>
</svg>
